<?xml version="1.0" encoding="utf-8"?>
<svg xmlns="http://www.w3.org/2000/svg" version="1.0" viewBox="0 0 577 150">
	<title>Engraving of the words FLA FUR BIS FLE.</title>
	<path d="M.324.46c.252.275.503.48.572.48C.942.94.805.736.576.46.324.187.073-.02.004-.02c-.045 0 .092.206.32.48zm.846.595c0 .16 1.463.892 1.578.777.045-.045-.275-.274-.732-.48-.48-.228-.846-.343-.846-.297zm368.32 5.738c-2.72.892-6.835 3.223-7.886 4.48-.892 1.052-.983 2.012-.412 4.161.55 2.058.526 2.309-.388 4.892-.526 1.509-.572 1.875-.366 2.652.16.48.549 2.835.914 5.212.343 2.377.846 5.12 1.12 6.104.686 2.606.755 3.086.412 3.497-.526.64-1.143.389-3.155-1.326-1.463-1.234-2.354-1.783-3.314-2.08-3.795-1.12-7.293-2.857-8.344-4.115-1.12-1.348-.617-2.834 2.926-8.64 2.835-4.641 3.383-5.19 5.532-5.556 2.012-.343 2.697-.731 3.155-1.829.457-1.143.205-1.988-.732-2.377-.686-.297-1.486-.434-6.675-1.097-2.857-.366-4.572-.846-6.995-1.943-2.995-1.395-5.144-1.28-6.264.32-.434.663-.503 2.811-.068 3.383.205.274 1.303.594 3.246.983 3.314.663 4.503 1.189 4.503 2.057 0 .435-.297.755-1.257 1.326-1.372.8-2.24 1.738-4.092 4.435-.686 1.006-2.332 3.063-3.68 4.572-4.001 4.55-4.115 5.143-1.44 8.367 2.102 2.537 2.697 4 2.857 6.926.091 2.103.068 2.31-.595 3.59-.868 1.714-2.514 3.566-3.726 4.183-.526.274-2.011.686-3.314.937s-2.698.617-3.087.823c-1.005.526-3.451 2.835-4.48 4.206-1.052 1.463-1.075 2.218-.046 3.246 1.943 1.943 5.555 1.646 7.361-.617 2.446-3.04 7.087-2.583 13.762 1.303 1.143.663 1.577.412 2.149-1.189.731-2.126.205-4.069-1.623-5.92l-1.143-1.166.16-2.812c.297-5.143.983-9.281 1.691-10.241.526-.732 2.218-.526 5.19.571 2.697 1.006 5.486 1.715 6.697 1.715.412 0 1.098.16 1.532.343.983.388 1.6 1.76 1.6 3.451 0 1.6-.868 2.972-4.115 6.538-3.543 3.887-3.886 4.367-3.886 5.624 0 1.852 1.83 4.206 3.246 4.206.732 0 1.623-.663 3.452-2.56 1.692-1.715 4.23-3.452 5.12-3.43.801 0 1.647.527 3.75 2.356 4.183 3.657 7.635 4.046 8.55.982.205-.662.182-1.12-.046-1.828-.617-1.966-2.515-4.344-4.16-5.167-1.167-.594-1.487-.96-3.292-3.657l-1.418-2.172V15.274l2.149-2.217c2.446-2.538 2.926-3.566 2.309-5.007-.32-.8-1.417-1.6-2.103-1.577-.183.023-.755.16-1.28.32zm-79.575.366c-.892.274-2.72 1.211-4.915 2.492-1.052.617-2.515 1.28-3.269 1.463-.754.182-1.874.617-2.492.96-1.371.731-1.623.64-2.926-.983-2.08-2.583-3.886-3.91-5.395-3.91-2.217 0-3.269 2.675-2.103 5.281.663 1.44 1.532 2.31 2.995 3.018.663.32 1.897 1.211 2.766 1.966a84.934 84.934 0 0 0 2.377 1.989c.732.548.8.731.983 2.514.115 1.052.206 6.31.206 11.682l.023 9.784-1.715 2.812c-2.994 4.96-3.497 6.72-2.217 7.75.823.64 2.355.64 3.452 0 2.24-1.281 2.789-1.464 4-1.19.64.16 2.995 1.12 5.235 2.172l4.092 1.897 5.03-.594c6.126-.731 7.635-.983 10.035-1.6 1.006-.274 2.103-.412 2.423-.343.366.091 1.417 1.143 2.629 2.606 3.2 3.863 3.726 4.252 5.875 4.252 1.349 0 2.126-.457 2.583-1.577.777-1.852.503-2.492-2.263-5.372-.96-.983-1.829-2.195-2.377-3.338-.846-1.669-.892-1.943-.892-3.978 0-1.966.069-2.331.8-3.84 1.052-2.218 1.235-3.818.549-5.235-.64-1.326-1.349-1.715-2.79-1.555-2.01.229-3.725 2.24-3.725 4.412 0 3.27-2.766 7.704-5.692 9.144-1.303.618-1.532.663-4.87.64-4.16 0-5.6-.342-7.43-1.783-3.68-2.903-4.983-6.88-5.211-15.956-.137-5.19.183-8.824 1.12-12.436.709-2.789 1.532-4.16 3.315-5.486 2.514-1.875 4.114-3.315 4.503-4.092.503-.96.252-2.217-.617-3.109-.594-.594-.846-.663-2.08-.663-.778.023-1.67.114-2.012.206zm-35.387 1.646c-.663.228-2.012.891-2.995 1.463-2.446 1.417-3.269 1.486-5.944.503-2.674-.983-3.977-1.006-8.343-.137-4.87.937-6.218 1.325-7.384 2.057-.549.343-1.235.709-1.463.8-.755.297-2.15-.229-4.39-1.669-1.165-.754-2.72-1.6-3.451-1.92-2.332-.983-5.007-.617-5.944.823-.549.823-.48 2.469.137 3.452.686 1.12 1.532 1.554 3.772 1.897 2.88.457 3.11.617 3.795 2.812.846 2.697 1.189 5.966 1.189 11.819 0 7.2-.8 12.161-2.606 16.047-.709 1.532-1.19 2.15-3.612 4.458-2.95 2.835-3.452 3.498-3.452 4.732 0 1.349 1.577 2.926 3.132 3.109.32.046 1.6-.183 2.834-.48 2.4-.617 3.384-1.303 4.48-3.155.732-1.257 1.35-1.463 3.956-1.348 2.331.114 2.377.114 7.75 2.171.89.343 2.057.617 2.582.617 1.418 0 2.835-.8 3.27-1.828.32-.778.32-.983-.046-1.898-.526-1.417-1.646-2.331-4.55-3.726-2.125-1.006-2.606-1.349-3.36-2.355-1.349-1.851-2.309-4.754-2.469-7.406-.206-3.703.115-4 4.504-4.298 4.412-.297 7.452.732 8.8 2.95.938 1.554 2.058 2.628 3.498 3.36 3.978 2.011 6.561-1.464 3.91-5.304-.504-.732-1.6-1.897-2.447-2.583-2.994-2.423-3.589-4.23-2.354-7.155.708-1.692.594-2.15-.846-2.858-2.355-1.211-4.503.046-5.28 3.11-.48 1.965-.755 2.4-1.784 2.925-.731.389-1.44.526-2.903.526-2.217.023-3.772-.366-4.572-1.189-.549-.526-.572-.708-.572-3.772 0-3.817.252-4.915 1.76-7.132 1.647-2.4 1.921-2.515 6.744-2.606 7.201-.137 8.779.777 11.842 6.858 1.143 2.24 2.926 4.252 4.229 4.755 2.675 1.029 6.15-.64 6.15-2.95 0-.96-.572-1.37-2.561-1.942-2.172-.595-2.835-1.029-3.635-2.4-.526-.892-.64-1.418-.663-2.63v-1.531l1.235-1.12c.686-.617 1.371-1.349 1.509-1.646.548-1.074.137-3.36-.732-4.07-.617-.525-1.509-.548-2.72-.136zm245.47 51.115c-1.074.525-1.966 1.737-1.966 2.674 0 .869.686 2.378 1.35 2.926.25.229 1.576 1.03 2.948 1.806 2.812 1.623 4.183 2.698 4.732 3.75.594 1.165 1.052 5.874 1.212 12.435.137 6.881-.115 9.487-1.303 13.008-.778 2.308-1.052 2.583-4.298 3.817-1.143.457-2.377 1.12-2.766 1.486-.594.594-.663.869-.663 2.126 0 2.012 1.006 3.795 2.675 4.663 1.348.71 1.851.55 4.892-1.645 2.034-1.463 4.274-2.378 6.103-2.515 2.172-.16 3.658.526 6.104 2.789 2.4 2.217 2.926 2.24 5.098.206 1.874-1.738 1.257-3.132-3.338-7.704-3.886-3.84-4.618-4.96-5.098-7.773-.388-2.194-.8-7.75-1.051-14.219l-.206-4.686 1.692-2.24c1.806-2.423 3.04-3.498 4.297-3.726 1.029-.183 2.4-1.349 2.904-2.4.548-1.144.525-2.904-.046-3.475-.64-.64-2.972-1.486-4.115-1.486-.754 0-1.303.274-2.812 1.326-2.789 1.988-3.497 2.286-5.578 2.286-2.926 0-5.326-.8-7.018-2.355-1.737-1.577-2.354-1.76-3.749-1.074zm-379.91.663c-2.08.891-2.857 4.457-1.509 6.858.549.96 1.395 1.508 2.995 1.897 1.234.32 3.497 1.92 4.138 2.949 1.28 2.103 1.668 13.807.754 22.586-.503 4.777-.846 5.349-3.383 5.829-1.098.206-2.492.686-3.658 1.28-1.029.549-2.194.983-2.606.96-.846 0-4-1.577-5.303-2.652-1.098-.891-1.486-1.783-1.966-4.366-.87-4.869-1.463-14.745-1.075-18.676.366-4.092 1.029-5.395 3.635-7.293.8-.594 1.714-1.417 2.034-1.874.8-1.12 1.19-3.338.823-4.687-.343-1.257-1.234-1.737-3.177-1.737-1.463 0-2.492.572-3.59 1.943-1.12 1.417-2.605 2.218-4.137 2.195-1.6-.023-2.903-.503-4.96-1.83-2.607-1.69-3.452-2.057-4.755-2.057-1.67 0-2.652.8-4.32 3.59l-.824 1.325 2.035 1.966c2.171 2.08 3.177 2.72 5.555 3.452 3.2.983 3.886 2.812 4.732 12.962.434 5.372-.092 8.115-2.218 11.201-1.897 2.766-4.457 4.755-7.223 5.624-2.058.663-5.327.64-7.179 0-2.56-.892-4.823-2.675-5.897-4.664-.366-.663-.435-1.463-.435-6.058 0-2.903.092-5.783.206-6.377.091-.618.663-1.92 1.257-2.88.572-.984 1.28-2.424 1.555-3.224.274-.823 1.143-2.355 2.034-3.59.869-1.188 1.806-2.65 2.103-3.245 1.44-2.926-.045-5.555-3.657-6.424-2.012-.48-11.613-1.76-12.71-1.692-1.052.069-1.12.115-1.692 1.258-.343.686-.64 1.76-.686 2.583-.091 1.166 0 1.532.549 2.469 1.326 2.263 3.292 2.834 6.744 1.943 1.851-.48 2.56-.412 3.543.366 1.211.937.96 1.486-4.572 9.852-4.686 7.087-5.624 8.824-5.784 10.63-.274 3.384 3.178 9.921 6.378 12.047 4.298 2.858 11.064 4.344 15.248 3.36 2.606-.616 2.949-.548 4.412.824 1.509 1.44 2.652 1.966 4.229 1.943 1.577 0 2.08-.412 3.109-2.355.48-.914 1.166-1.92 1.509-2.24.571-.549.823-.594 2.72-.594 1.92 0 2.217.068 4.23 1.006 1.188.548 2.765 1.165 3.497 1.371 1.828.549 6.812 1.326 8.366 1.326 1.28 0 1.303 0 3.04-1.783 1.304-1.349 1.967-1.829 2.744-2.057 1.829-.48 3.543.137 6.126 2.171 3.452 2.72 5.03 3.224 6.767 2.172 1.897-1.166 2.355-3.863 1.052-6.15-.778-1.348-2.058-2.583-3.27-3.154-.434-.206-1.005-.777-1.28-1.257-1.325-2.332-2.103-8.139-1.211-9.007.549-.549 4.618-.595 5.646-.069 1.67.892 4.207 4.184 6.584 8.596.8 1.485 2.035 3.474 2.789 4.457 2.56 3.43 8.138 8.55 10.698 9.853 2.126 1.051 4.047.709 5.327-.96 1.76-2.31.754-4.046-3.91-6.79-1.097-.64-2.468-1.691-3.04-2.308-1.143-1.28-2.88-4.481-3.794-7.087-.8-2.195-1.6-3.772-2.515-4.938-.412-.503-.869-1.28-1.006-1.737-.434-1.303.046-1.829 2.172-2.31 3.04-.73 7.887-3.908 9.235-6.08.617-1.006.709-1.371.709-2.857 0-1.098-.137-1.943-.389-2.423-1.097-1.99-6.218-7.11-8.71-8.687-1.988-1.28-8.572-3.064-12.504-3.406-2.629-.229-6.012 0-8.64.571-1.967.412-4.184.457-5.464.114-.87-.251-1.463-.777-3.818-3.337-.823-.937-.937-.96-2.263-.96-.777 0-1.738.16-2.149.343zm26.678 9.12c1.097.458 1.737 1.235 2.651 3.178 1.12 2.355 1.715 5.852 1.326 7.818-.503 2.72-1.074 2.926-7.84 2.926-7.659 0-7.91-.137-7.91-4.549 0-2.629 0-2.651.823-3.84 1.874-2.698 5.12-5.418 7.04-5.898.96-.251 2.88-.069 3.91.366zm424.075-8.48c-.274.137-.8.777-1.143 1.417-1.12 2.057-2.034 2.332-4.457 1.303-3.43-1.44-8.527-2.377-10.859-2.012-2.811.458-9.51 3.27-12.344 5.212-1.897 1.28-2.903 2.424-4.092 4.732-1.303 2.538-1.897 4.527-1.532 5.304.709 1.577 4.024 4.252 6.63 5.372 1.714.732 4.297 1.28 10.652 2.286 3.064.48 6.264 1.074 7.087 1.326 2.08.64 3.52 1.943 4.55 4.16 1.21 2.538 1.257 2.972.41 4.115-.41.526-.73 1.166-.73 1.44-.047 2.652-5.899 5.464-12.002 5.807l-2.538.114-1.669-.891c-2.217-1.19-4.297-2.606-4.892-3.36-.297-.39-.617-1.464-.868-2.95-.412-2.309-1.235-4.572-1.966-5.372-.663-.731-2.332-1.234-3.59-1.051-2.057.32-2.834 1.897-1.782 3.612.731 1.165 1.234 3.429 1.074 4.732-.229 1.623-.846 2.446-2.675 3.634-3.223 2.103-4.114 3.795-2.926 5.555 1.19 1.738 1.83 1.623 5.624-.96 2.24-1.509 2.423-1.6 3.452-1.486.686.069 1.76.48 2.834 1.098 2.264 1.303 4.915 1.92 9.053 2.148 7.11.366 12.07-.32 16.3-2.309 4.32-2.034 7.086-4.297 8.572-7.063.708-1.303.823-1.738.823-3.178 0-3.635-2.4-6.606-7.91-9.807-3.68-2.126-7.932-3.36-12.962-3.726-4.663-.366-7.223-1.303-9.12-3.406-1.098-1.234-1.555-2.309-1.555-3.612 0-2.057 1.394-3.68 4.48-5.166 2.446-1.189 4.664-1.6 7.91-1.486 2.515.091 2.789.16 4.48 1.006 2.492 1.211 4.115 3.04 5.83 6.492.708 1.463 1.349 3.017 1.44 3.497.206 1.19 1.12 2.08 2.515 2.4 2.743.664 4.526-.708 4.229-3.268-.137-1.235-.823-2.08-2.606-3.223-2.31-1.486-2.47-3.704-.595-7.567 1.463-3.018 1.578-3.726.778-4.526-.526-.526-.823-.618-1.99-.595-.777 0-1.622.115-1.92.252zm-132.45.8c-1.35.48-2.08 1.44-1.99 2.629.07.891.16 1.006 1.395 1.691 2.31 1.28 3.36 3.475 4.298 8.939.732 4.114 1.212 9.098 1.372 13.876.16 4.915-.023 6.103-1.532 9.28-1.349 2.904-2.08 3.361-6.08 3.796-3.155.342-3.476.548-3.704 2.24-.206 1.806.206 2.743 1.714 3.703 2.835 1.829 4.435 1.966 7.293.594 2.057-.982 9.555-3.657 10.241-3.657.183 0 1.554.48 3.04 1.074 4.024 1.6 4.595 1.715 6.744 1.349 1.006-.16 3.566-.389 5.715-.503 4.366-.228 5.19-.434 8.938-2.423 1.19-.617 2.995-1.44 4.024-1.783 2.103-.754 2.857-1.44 4-3.703.983-1.92 1.943-4.824 1.943-5.853 0-1.28-1.234-2.926-5.646-7.59-1.509-1.6-2.812-3.13-2.903-3.428-.115-.389-.023-.617.365-.892 1.326-.914 3.43-3.063 4.344-4.48.937-1.418.983-1.6.731-2.195-.731-1.623-3.109-4.8-5.029-6.72-2.446-2.47-4.64-3.978-6.584-4.481-2.446-.64-6.332-.937-10.127-.777-4.366.182-6.835.594-10.287 1.737l-2.628.891-3.384-1.714c-3.68-1.852-4.8-2.149-6.263-1.6zm27.18 5.28c1.806.8 4.115 3.11 4.984 4.961.685 1.509.708 1.806.205 3.063-.434 1.12-1.44 1.943-3.543 2.926-2.674 1.258-9.144 2.63-12.664 2.698-1.646.046-1.92-.023-2.47-.549-.525-.503-.616-.777-.616-2.057 0-1.829.823-6.652 1.348-7.864.458-1.006 1.303-1.737 3.155-2.675 2.995-1.508 6.904-1.714 9.601-.503zm4.755 18.22c2.515.777 3.36 2.057 3.703 5.6.229 2.515.023 4.321-.64 5.327-.731 1.12-3.543 3.909-4.549 4.503-2.011 1.166-8.458 1.372-11.178.343-2.424-.937-3.978-3.154-5.624-8.115-1.051-3.132-1.28-4.846-.731-5.692.663-.983 4.274-1.898 9.28-2.309 3.338-.274 8.299-.091 9.74.343zM55.531 63.486c-.914.48-2.08 1.371-3.634 2.789l-1.235 1.12-1.874-.686c-5.372-2.012-11.019-2.172-17.854-.48-3.955.96-6.652 1.052-8.092.251-.55-.297-1.212-.868-1.486-1.234-1.098-1.486-3.36-1.92-4.915-.937-1.075.64-2.263 1.989-2.446 2.766-.617 2.469 2.446 5.418 6.698 6.492 1.966.503 2.949 1.235 3.292 2.515.388 1.486.685 6.63.708 11.978 0 7.11-.526 11.225-1.623 12.733-.251.32-1.257 1.029-2.24 1.555-2.515 1.371-3.772 2.286-5.098 3.703-1.486 1.577-2.172 3.132-1.966 4.298.457 2.469 2.903 4.846 4.984 4.846 1.005 0 2.469-.914 4.64-2.88 1.829-1.646 3.886-3.11 5.098-3.59 1.897-.776 4.23-.228 6.447 1.487.548.434 1.737 1.348 2.628 2.034 1.92 1.509 3.018 1.875 4.458 1.486 1.326-.343 2.972-1.966 3.2-3.132.503-2.743-2.011-5.715-6.423-7.544-2.423-.982-3.36-1.691-4-2.948-.595-1.166-1.715-5.738-1.875-7.727-.137-1.532-.092-1.669.526-2.286l.64-.64 3.292.114c4.777.183 5.395.434 8.07 3.178 2.194 2.24 2.994 2.811 4.343 3.109 1.417.297 3.131-.823 3.977-2.63.96-2.08.412-3.497-2.08-5.394-4.046-3.064-4.732-4.504-3.818-8.001.229-.823.412-2.012.412-2.652.023-1.577-.755-2.309-2.446-2.309-1.463 0-2.56.709-3.384 2.172-.525.937-.617 1.417-.685 3.886l-.092 2.812H38.41c-5.395 0-5.966-.366-5.715-3.658.183-2.492.663-4.252 1.532-5.67.571-.913 1.006-1.28 2.652-2.08 1.074-.548 2.377-1.074 2.903-1.142 1.783-.298 7.635 1.646 8.55 2.834a69.33 69.33 0 0 0 2.125 2.446c.892.983 2.012 2.56 2.47 3.498 1.028 2.034 2.72 3.909 3.863 4.275.914.297 2.423.343 3.2.114.594-.206 1.189-1.326 1.189-2.263 0-1.235-.457-1.966-2.4-4-3.018-3.155-3.11-4.641-.48-7.407.754-.8 1.554-1.806 1.76-2.218 1.188-2.331-.412-5.372-2.79-5.349-.57 0-1.325.16-1.737.366zm234.521 36.964c-.937.503-2.034 1.555-2.034 1.92 0 .824-2.698 1.944-5.235 2.195-1.372.115-1.646.069-3.04-.64-.847-.434-1.99-1.211-2.584-1.737-1.189-1.097-1.829-1.395-2.926-1.395-1.509 0-3.498 1.943-3.498 3.384 0 1.074.87 3.177 1.783 4.229.458.548 1.44 1.326 2.15 1.714 2.148 1.212 4.457 4.64 5.28 7.818.549 2.058.937 7.727.8 11.613-.16 5.258-.571 5.967-4.892 8.276-3.063 1.623-3.589 2.057-4.686 3.657-1.532 2.263-1.669 4.618-.389 6.447.663.914 2.88 1.92 4.275 1.92 1.257 0 2.08-.412 3.726-1.76.64-.549 2.058-1.418 3.11-1.943 3.29-1.623 6.354-1.738 10.195-.343 2.126.754 3.909.823 7.063.251 3.955-.709 10.95-.388 15.134.709.8.206 2.56.891 3.909 1.554 3.589 1.76 5.098 1.578 6.675-.777.594-.869.709-1.257.709-2.629 0-1.737-.343-2.446-1.646-3.406-.549-.411-1.03-.503-2.766-.503-2.446-.023-2.812-.206-4.87-2.583-1.92-2.195-2.354-2.835-2.354-3.315 0-.251.663-1.257 1.486-2.286 2.263-2.743 2.56-3.223 2.972-4.618.48-1.6.297-2.697-.64-3.749-1.166-1.303-3.772-1.737-5.624-.891-1.806.823-3.292 3.109-5.075 7.795-1.143 2.995-2.675 5.852-3.429 6.378-2.538 1.806-7.658 1.555-10.836-.571-1.737-1.12-2.926-4.184-3.703-9.396-.411-2.766-.526-17.145-.137-18.174.183-.502.411-.594 1.737-.731 2.88-.32 4.23-1.074 4.778-2.72.549-1.67-.343-4.047-2.012-5.373-.891-.685-2.469-.822-3.406-.32zm-35.776 1.555c-1.486.503-5.463.937-10.675 1.189-5.807.274-9.03.548-12.848 1.097-3.657.503-5.646.457-7.383-.252-3.52-1.394-6.196-1.44-8.893-.16-1.76.846-3.52 2.584-3.52 3.498 0 1.349 2.126 2.88 5.052 3.612 2.171.549 2.72.8 3.406 1.532 1.074 1.143 1.257 2.628 1.234 10.104-.023 6.126-.068 7.04-.526 8.686-.914 3.43-2.491 5.898-6.263 9.922-1.303 1.371-2.492 2.834-2.675 3.269-.274.685-.251.868.252 1.806 1.12 2.126 4.183 4.343 5.532 4 1.851-.457 4.549-3.337 4.549-4.846 0-.663 1.051-.823 4.503-.686 3.452.137 4.938.64 6.904 2.377 1.6 1.395 2.149 1.646 3.543 1.646 1.44-.023 2.904-.754 3.75-1.92.982-1.349 1.302-2.446 1.165-4-.206-2.446-2.057-3.955-5.646-4.572-2.79-.458-3.955-1.006-4.732-2.172-1.12-1.692-1.738-6.355-.983-7.384.297-.411.708-.48 3.589-.549 3.063-.068 3.337-.045 4.526.503.686.343 2.4 1.532 3.772 2.652 2.766 2.263 4.71 3.43 6.15 3.635 1.805.274 3.223-1.257 3.223-3.475 0-1.874-1.303-3.52-4.115-5.143-2.56-1.463-3.2-2.835-3.155-6.63a55.131 55.131 0 0 0-.091-3.817c-.138-1.943-.183-2.08-.96-2.835-1.166-1.097-1.966-1.052-3.338.229-1.555 1.44-1.829 2.08-2.035 5.075-.16 2.103-.297 2.743-.663 3.086-.594.594-3.291.983-5.212.731l-1.44-.183v-5.166c0-3.84.092-5.304.32-5.715.457-.8 2.538-1.669 5.28-2.24 1.967-.389 2.584-.435 4.024-.229 3.52.526 5.007 1.509 10.196 6.744 4.526 4.572 5.578 5.303 8.138 5.486 1.943.137 2.972-.297 3.543-1.531.778-1.6-.251-3.75-3.04-6.424-2.538-2.446-2.698-3.43-.869-5.647 1.166-1.44 1.418-2.217 1.098-3.451-.366-1.28-1.212-1.92-2.698-2.012-.686-.046-1.577.023-1.989.16zm113.912 1.92c-1.006.092-4.572.183-7.933.206-13.533.068-15.842.663-20.162 5.212-3.772 3.978-6.995 9.258-7.453 12.253-.137.823-.617 2.309-1.097 3.315-1.074 2.263-1.052 3.497.114 5.966 1.875 3.91 7.453 10.15 10.47 11.727 4.23 2.195 11.819 3.795 15.568 3.27 2.537-.344 7.567-2.584 10.447-4.664 1.303-.915 2.949-.617 4.732.823 1.28 1.006 2.789 1.509 4.778 1.554 3.36.092 5.417-.731 5.395-2.194 0-1.738-1.875-3.978-3.52-4.23-2.15-.365-3.796-1.6-4.824-3.657-.846-1.669-.846-2.103-.023-3.795.64-1.326.731-1.76.64-2.812-.092-1.028-.252-1.371-.983-2.034-.8-.709-1.006-.8-2.4-.8-.823 0-2.035.16-2.698.343-4.183 1.211-5.943.411-6.263-2.812-.092-.937.022-1.715.502-3.155.755-2.377.755-2.56.023-3.223-1.806-1.714-5.669-.16-7.2 2.903-.595 1.212-2.218 2.4-4.047 2.972-1.737.549-8.344.777-8.732.297-.938-1.12 1.966-6.56 5.189-9.784 2.194-2.172 5.28-3.337 7.955-2.995 2.698.343 8.024 2.607 13.328 5.624 2.377 1.349 3.314 1.76 4.069 1.783.96.023.96.023 1.028-.983.046-.549-.205-2.72-.525-4.8-1.03-6.653-1.19-6.813-6.378-6.31zm-10.813 23.089c.457.206 1.371.8 2.034 1.349 2.035 1.714 3.407 2.24 5.921 2.331 1.189.023 2.309.183 2.446.32.16.16.32 1.075.366 2.035.068 1.691.046 1.783-.686 2.652-.96 1.074-3.886 2.514-6.72 3.269-1.647.457-2.675.571-5.281.571l-3.247.023-2.263-1.143c-2.857-1.417-4.343-2.492-5.395-3.955-1.028-1.44-1.417-2.812-1.28-4.503.183-2.195 1.235-2.95 4.595-3.246 3.223-.298 8.504-.115 9.51.297z"/>
</svg>
