<?xml version="1.0" encoding="utf-8"?>
<svg version="1.1" viewBox="0 0 215.69716 57.312077" xmlns="http://www.w3.org/2000/svg" xmlns:svg="http://www.w3.org/2000/svg">
	<title>Engraving of the words FLA FUR BIS FLE.</title>
	<path d="m77.664639 56.538678c-0.425371-0.425368-0.773398-0.980085-0.773398-1.232702 0-0.252618 0.54415-0.958892 1.209222-1.569495 0.665073-0.610602 1.49851-1.734582 1.852084-2.497735 0.570222-1.230762 0.64286-1.753648 0.64286-4.62756 0-3.613684-0.120679-3.890918-1.834721-4.214892-0.964136-0.182234-1.869445-0.836467-1.869445-1.350978 0-0.60765 1.286766-1.505829 2.36438-1.650365 0.745074-0.09994 1.423654 0.0021 2.12975 0.320627 0.932519 0.420508 1.251321 0.43384 3.184144 0.133165 1.18133-0.183772 3.300505-0.354685 4.709277-0.379812 1.408774-0.02514 3.037657-0.184208 3.61974-0.353518 1.328502-0.386419 1.937372-0.206695 2.148412 0.634153 0.117541 0.468329 0.0031 0.831075-0.396261 1.256189-0.796182 0.8475-0.706382 1.272807 0.496808 2.352935 1.512657 1.357939 1.381281 2.842291-0.251355 2.839897-0.958312-0.0013-2.150274-0.802561-3.322595-2.233221-1.467749-1.791198-3.008966-2.624082-4.576947-2.473418-0.68571 0.06589-1.602822 0.29046-2.03803 0.499049-0.780944 0.374296-0.791282 0.406856-0.791282 2.492352v2.113102l0.759574 0.08681c0.417767 0.04774 1.042845 0.01572 1.389063-0.07119 0.546946-0.137274 0.629488-0.315029 0.629488-1.355604 0-0.930441 0.150276-1.347885 0.673624-1.871233 0.607928-0.607928 0.728329-0.637305 1.234522-0.301207 0.490244 0.325511 0.555236 0.603509 0.515975 2.207006-0.04858 1.983882 0.119255 2.34746 1.41574 3.066933 1.15965 0.643538 1.639332 1.585206 1.246587 2.447187-0.505068 1.108504-1.532276 0.914202-3.366656-0.636826-1.478793-1.250368-1.647447-1.322916-3.075355-1.322916-1.706158 0-1.799469 0.107955-1.544643 1.787067 0.225692 1.487144 0.704808 1.943404 2.220105 2.114201 1.551975 0.174929 2.375541 1.068297 2.119443 2.299081-0.341726 1.6423-2.054196 2.242936-3.11902 1.093972-0.651407-0.702878-1.670232-1.044683-3.011945-1.010467-1.357723 0.03462-1.393793 0.04561-1.393793 0.424386 0 0.577877-1.248609 1.758426-1.859802 1.758426-0.309184 0-0.910182-0.348027-1.33555-0.773399z"/>
	<path d="m100.23608 56.90348c-1.744613-0.733554-1.233211-3.206228 0.86453-4.18008 2.01956-0.937554 2.2225-1.285738 2.2225-3.813035 0-1.236901-0.11101-2.834278-0.24669-3.549727-0.2756-1.453224-1.35791-3.058877-2.30445-3.418753-0.34409-0.13082-0.801216-0.663405-1.021086-1.189632-0.35724-0.855009-0.35531-1.018077 0.0189-1.589183 0.479396-0.731652 1.490956-0.843603 2.006766-0.222089 0.18912 0.227875 0.69553 0.596175 1.12534 0.818444 0.65571 0.339074 0.96756 0.352025 1.9375 0.08046 0.63582-0.178015 1.15602-0.418748 1.15602-0.534961 0-0.397159 0.8308-1.042848 1.34182-1.042848 0.7515 0 1.5686 0.947899 1.5686 1.819688 0 0.895511-0.46306 1.349989-1.49938 1.471599-0.41227 0.04838-0.83977 0.101537-0.95002 0.118129-0.11024 0.01659-0.20061 0.774308-0.20082 1.683814-2.1e-4 0.909505 5.3e-4 2.308489 2e-3 3.108854 3e-3 2.141312 0.52041 4.676759 1.10563 5.420754 0.99774 1.268412 3.82459 1.533194 4.80482 0.450051 0.23336-0.257863 0.73502-1.297332 1.11479-2.309929 0.85519-2.28028 1.51494-3.03171 2.66181-3.03171 1.86729 0 2.25506 1.663751 0.76653 3.288845-0.50932 0.556051-0.92604 1.114756-0.92604 1.241566 0 0.126812 0.43984 0.717417 0.97742 1.312457 0.8414 0.931326 1.08674 1.06003 1.76289 0.924798 1.5446-0.308919 2.39219 1.593578 1.22844 2.757334-0.69036 0.690357-1.17285 0.667396-2.51598-0.119729-1.37481-0.805693-5.0811-1.168948-7.22833-0.708448-1.13468 0.243345-1.56148 0.225353-2.33658-0.09851-1.85178-0.773726-3.56353-0.468471-5.24932 0.936104-0.81435 0.6785-1.27798 0.758137-2.18745 0.375732z"/>
	<path d="m133.20189 53.08739c0.74226-0.140767 1.77322-0.52772 2.29103-0.859896 0.82002-0.526045 0.93218-0.723424 0.86938-1.530001-0.0677-0.870035-0.12311-0.92094-0.91539-0.841698-0.90987 0.091-1.73163-0.242091-2.64301-1.071314-0.47712-0.434112-0.94073-0.521575-2.70338-0.510016-2.69074 0.01765-3.20303 0.271807-3.20303 1.589085 0 1.147622 0.79646 2.074199 2.52345 2.935695 1.19658 0.596903 1.87875 0.648891 3.78095 0.288145zm-3.39399 2.325306c-3.34163-0.696973-4.16263-1.218509-6.31987-4.014689-1.29799-1.682446-1.5954-2.804769-0.98862-3.730824 0.23613-0.360381 0.43044-0.92732 0.43181-1.259861 4e-3 -0.881605 1.42579-3.220289 2.85615-4.696788 1.58083-1.631821 2.6356-1.922378 6.78583-1.869287 1.75331 0.02244 3.67072-0.03636 4.26091-0.130627 1.27335-0.203393 1.57823 0.06701 1.79742 1.594165 0.0836 0.582083 0.22903 1.504817 0.32329 2.050521 0.14855 0.859948 0.10406 0.992187-0.3338 0.992187-0.27786 0-0.61831-0.111654-0.75655-0.248121-0.13825-0.136469-1.35277-0.791313-2.69893-1.455208-2.72685-1.344822-3.78644-1.484228-5.30203-0.697572-1.03525 0.537337-2.55091 2.554079-2.8483 3.789964-0.16377 0.680553-0.11763 0.729498 0.71349 0.75689 2.27287 0.07491 3.80617-0.459491 4.18619-1.459026 0.34419-0.905306 1.69269-1.589781 2.39332-1.214816 0.61582 0.329576 0.62085 0.362466 0.22348 1.46135-0.38982 1.078036-0.11565 2.156886 0.60637 2.386047 0.31153 0.09888 1.0257 0.0282 1.58704-0.157057 1.38495-0.457078 2.34322-0.0431 2.34322 1.012293 0 0.410578-0.13416 0.880663-0.29813 1.044633-0.71325 0.713253 0.60573 2.718123 1.78823 2.718123 0.65091 0 1.42032 0.895408 1.42032 1.652921 0 1.009182-2.98242 1.142868-3.86011 0.173027-0.47131-0.520782-1.55513-0.680665-1.81072-0.26711-0.0802 0.129757-0.91316 0.606007-1.85103 1.058333-1.76463 0.851067-2.58458 0.94111-4.64898 0.510532z"/>
	<path d="m3.4334042 43.773456c-0.5463159-0.264531-1.1546633-1.249463-1.1546633-1.869435 0-0.702723 1.2671004-2.061771 2.4301765-2.606527 1.1903609-0.557535 1.2685387-0.660709 1.5583138-2.056548 0.3190517-1.536864 0.2168316-7.468111-0.1431767-8.307716-0.109733-0.255918-0.5138039-0.528296-0.8979349-0.605284-1.3336413-0.26729-2.510004-1.031484-2.7594357-1.792595-0.2020932-0.616664-0.1396481-0.858284 0.3589912-1.389063 0.7810511-0.83139 1.7478703-0.823805 2.4107529 0.01891 0.6225098 0.791392 1.5911944 0.854178 3.8424247 0.249049 1.9785723-0.531839 4.3681353-0.509582 5.9390733 0.05532l1.24356 0.447178 0.955334-0.838794c1.056852-0.927928 1.745562-1.050688 2.37323-0.42302 0.662187 0.662187 0.506555 1.668981-0.377976 2.445142-1.092384 0.958551-1.046455 1.845074 0.15049 2.904768 0.729012 0.645419 0.925015 1.003289 0.859896 1.570037-0.06238 0.542954-0.249615 0.757431-0.719144 0.823794-0.958038 0.135408-1.772872-0.430041-2.298077-1.594739-0.259666-0.575834-0.747792-1.263817-1.084725-1.52885-0.336934-0.26503-0.612607-0.599122-0.612607-0.742426 0-0.256323-0.598202-0.53535-2.333572-1.088469-0.724371-0.230881-1.077098-0.186547-2.011936 0.252881-0.906518 0.426111-1.1942978 0.73552-1.4367408 1.544724-0.166742 0.556536-0.303167 1.377001-0.303167 1.823252 0 0.934302 0.315428 1.089861 2.1828118 1.076505l1.256771-9e-3v-1.109705c0-1.426051 0.592084-2.285775 1.574195-2.285775 0.950605 0 1.146841 0.504984 0.759301 1.953948-0.267335 0.999538-0.242883 1.219264 0.201202 1.808001 0.278037 0.368599 0.893034 0.924206 1.366662 1.234676 0.961557 0.630314 1.110266 1.40912 0.449262 2.352836-0.675043 0.963761-1.789364 0.781005-2.783912-0.456575-0.868831-1.081146-1.433843-1.313614-3.36183-1.383192-1.5821368-0.0571-1.7585872 0.206709-1.3747988 2.055405 0.4769428 2.297425 0.6933208 2.61483 2.1362638 3.133707 2.169965 0.780306 3.115802 2.762319 1.768534 3.705984-0.906307 0.634802-1.477161 0.502153-2.78205-0.646456-1.7566032-1.546219-2.7626924-1.489577-4.6997038 0.264589-1.5226686 1.378937-1.7497684 1.464757-2.681795 1.013463z"/>
	<path d="m53.732119 31.818411c0.993727-0.72663 0.187126-4.554273-1.060622-5.033079-1.258565-0.482954-2.154481-0.177427-3.407342 1.161984-1.15956 1.23966-1.235874 1.408576-1.160687 2.569038 0.06919 1.06784 0.173297 1.267772 0.741939 1.424848 1.214083 0.335359 4.368552 0.256098 4.886712-0.122791zm2.044795 9.823029c-1.464218-1.374775-2.277713-2.397379-2.894087-3.63802-0.95921-1.930694-2.211239-3.431485-2.911821-3.490352-0.255278-0.02146-0.791562-0.02013-1.191744 0.0029-0.666518 0.0384-0.727605 0.131488-0.727605 1.108753 0 1.144114 0.61104 2.901918 1.008753 2.901918 0.133102 0 0.561766 0.319762 0.952585 0.710581 0.93195 0.931947 0.884563 2.419736-0.0925 2.904233-0.736008 0.364964-1.186442 0.193792-2.656726-1.009591-1.263127-1.033831-2.361423-1.011156-3.157191 0.06518-0.548193 0.741471-0.708158 0.805193-1.703404 0.678548-2.151504-0.273781-2.963473-0.480111-3.942405-1.001805-0.573696-0.30574-1.354439-0.49366-1.851705-0.445696-0.69941 0.06746-0.9466 0.267991-1.325258 1.075116-0.387914 0.826852-0.599509 0.992187-1.269783 0.992187-0.531186 0-1.026033-0.239252-1.45728-0.704575-0.597104-0.644287-0.732756-0.680093-1.585283-0.418444-1.883376 0.578025-5.303541-0.363971-6.6363-1.827794-0.80158-0.880409-1.716713-2.793201-1.740746-3.638473-0.02443-0.859171 0.261618-1.416561 2.207173-4.300893 2.167264-3.21302 2.253412-3.412397 1.661473-3.845234-0.268912-0.196633-0.670939-0.285226-0.893396-0.196874-1.215155 0.482616-2.059408 0.427686-2.616455-0.170233-0.62844-0.674552-0.696765-1.188204-0.297677-2.237885 0.241502-0.635198 0.367705-0.691174 1.256771-0.557433 0.543571 0.08178 1.881279 0.26809 2.972686 0.414033 1.503807 0.20109 2.096508 0.403089 2.447395 0.834102 0.676958 0.831543 0.574459 1.454261-0.46302 2.813008-0.509323 0.667041-0.926042 1.38566-0.926042 1.59693 0 0.211272-0.259953 0.749199-0.577673 1.195398-0.489794 0.68785-0.580358 1.184172-0.595312 3.262535-0.01696 2.357654 0.01183 2.48209 0.753607 3.258357 1.825202 1.910024 4.971836 1.654468 6.75191-0.548365 1.182473-1.463307 1.426713-2.380777 1.239367-4.655603-0.362178-4.397719-0.51035-4.733023-2.284246-5.169099-0.366011-0.08997-1.047856-0.558107-1.515208-1.040294l-0.849733-0.876702 0.51481-0.846542c0.762384-1.253636 1.59012-1.347815 2.992763-0.340512 1.597724 1.147398 2.702809 1.156963 3.64236 0.03153 0.58783-0.704126 0.870125-0.839496 1.604211-0.769273 0.703186 0.06727 0.909405 0.216294 0.978927 0.707442 0.155207 1.09651-0.214572 1.905745-1.113076 2.435875-1.25776 0.742095-1.546892 1.87842-1.376177 5.408567 0.156943 3.245459 0.41774 5.078886 0.813678 5.720263 0.145521 0.235728 0.751306 0.674791 1.346187 0.975693 1.074171 0.543335 1.087401 0.543571 1.924624 0.03442 0.463661-0.28197 1.12322-0.51267 1.465686-0.51267 0.976855 0 1.207024-0.538083 1.370089-3.202932 0.191913-3.136337 0.18896-2.649059 0.03173-5.233782-0.124138-2.04067-0.195477-2.268489-0.887691-2.834756-0.413988-0.338661-0.931299-0.623819-1.14958-0.63368-0.789485-0.03567-1.322917-0.707041-1.322917-1.665016 0-1.150468 0.569934-1.775668 1.618705-1.775668 0.597591 0 0.8957 0.190821 1.237872 0.792365 0.542298 0.953369 1.543555 1.207098 3.22884 0.818222 2.290794-0.528596 4.37053-0.292886 7.510907 0.851261 0.420217 0.153098 1.462013 0.996103 2.315104 1.873342 1.310119 1.347208 1.551072 1.743208 1.551072 2.549144 0 0.702826-0.191659 1.12985-0.727604 1.621134-0.982861 0.900954-2.625386 1.813282-3.264572 1.813282-0.763786 0-0.920477 0.730414-0.300876 1.402525 0.295016 0.320019 0.701476 1.0581 0.903248 1.640184 0.795316 2.294387 1.501018 3.279777 2.831806 3.954139 1.641443 0.831782 2.069182 1.77292 1.200557 2.641545-0.892735 0.892736-1.872691 0.528815-4.029802-1.496529z"/>
	<path d="m171.06123 30.815492c4.41712-0.768117 5.37469-2.296549 2.82871-4.515059-1.08687-0.947074-2.98577-1.002352-4.52683-0.131778-1.00969 0.570391-1.07237 0.682683-1.36364 2.443043-0.43921 2.654419-0.26221 2.781819 3.06176 2.203794zm4.30556 6.991371c1.01127-1.011266 1.0964-1.204645 1.06854-2.427359-0.0401-1.760357-0.39112-2.335165-1.6297-2.668682-1.12268-0.302305-4.24975-0.142211-6.03783 0.309115-1.24433 0.314076-1.35666 0.627814-0.82815 2.312937 0.98207 3.13132 1.80793 3.797848 4.53736 3.661961 1.69908-0.08459 1.84736-0.14555 2.88978-1.187972zm-14.02364 3.623191c-0.74262-0.452765-0.86364-0.664384-0.79375-1.388073 0.08-0.828646 0.12262-0.856194 1.44211-0.932815 1.55208-0.09013 1.92753-0.405855 2.58048-2.170006 0.37888-1.023657 0.4056-1.635877 0.19051-4.365625-0.37615-4.773896-0.98787-6.785195-2.1566-7.090824-0.81105-0.212096-0.59701-1.291487 0.31977-1.612542 0.57077-0.199883 0.9867-0.100541 2.16751 0.517689l1.4612 0.765037 1.53666-0.523013c1.99555-0.679202 6.45975-0.661767 7.80696 0.03049 1.08532 0.557685 2.59981 2.054573 3.33912 3.300308l0.55988 0.94339-0.62013 0.912598c-0.34107 0.501931-0.90276 1.063469-1.24819 1.247863-0.62706 0.334724-0.62521 0.338222 1.15787 2.184677 1.12365 1.163593 1.78498 2.068039 1.78335 2.438956-1e-3 0.324247-0.29169 1.210495-0.64504 1.969442-0.4921 1.056952-0.81659 1.420807-1.38648 1.554694-0.40921 0.09614-1.35382 0.516978-2.09914 0.935202-1.11702 0.6268-1.66632 0.76041-3.12625 0.76041-0.97412 0-1.97255 0.107799-2.21874 0.239556-0.30834 0.165018-0.93138 0.04274-2.0024-0.393001l-1.55479-0.632556-2.0151 0.699323c-1.10831 0.384628-2.12821 0.799603-2.26645 0.922166-0.42021 0.372549-1.28924 0.249465-2.21236-0.313344z"/>
	<path d="m186.49488 41.187426c-0.65887-0.549648-0.81169-1.895065-0.26458-2.329304 0.1819-0.144375 0.76668-0.402839 1.29952-0.574363s1.05173-0.514461 1.15311-0.762085c0.74315-1.81525 0.88988-4.304241 0.50635-8.589071-0.15557-1.738008-0.19143-1.810059-1.26189-2.535142-0.60598-0.410464-1.31117-0.822531-1.56709-0.915707-0.25592-0.09318-0.60223-0.469924-0.76958-0.837219-0.25268-0.554571-0.22291-0.75772 0.17558-1.198051 0.63291-0.699352 1.23934-0.669886 1.90216 0.09242 0.72352 0.832123 3.04668 1.180838 3.88056 0.582488 0.31254-0.224263 0.83083-0.598155 1.15175-0.830873 0.48657-0.352844 0.73926-0.371712 1.52135-0.113599 0.91314 0.301363 1.05946 0.506726 0.94534 1.326819-0.0844 0.606748-0.82595 1.322917-1.36974 1.322917-0.26757 0-0.85735 0.506015-1.31063 1.124479l-0.82413 1.124479 0.14433 3.439583c0.0794 1.891771 0.28713 3.873871 0.46167 4.404665 0.20217 0.614828 0.88039 1.460701 1.86877 2.330704 1.71047 1.505619 1.97254 2.332373 0.96338 3.039213-0.7968 0.558107-0.8499 0.543798-1.90786-0.514165-1.30623-1.306227-2.78402-1.172813-4.88197 0.440738-0.7835 0.602604-1.06474 0.598125-1.8164-0.02893z"/>
	<path d="m198.08249 40.525597c-0.5638-0.679339-0.2039-1.524682 0.91395-2.146731 0.88534-0.492662 1.07163-0.742701 1.13963-1.529673 0.0483-0.55854-0.0988-1.215633-0.36203-1.617339-0.55568-0.84809-0.15059-1.467694 0.95959-1.467694 0.94894 0 1.5158 0.786315 1.72979 2.399501 0.15072 1.136187 0.26621 1.290627 1.54448 2.065334 1.34598 0.815748 1.4275 0.830816 3.16443 0.584838 1.83536-0.259921 3.59807-1.24048 3.59807-2.00153 0-0.200483 0.16116-0.525664 0.35812-0.722625 0.30109-0.301099 0.2695-0.544677-0.19844-1.529863-0.6545-1.377974-1.26238-1.649654-4.6805-2.091881-1.24952-0.16166-2.79734-0.473173-3.43958-0.69225-1.27903-0.436293-2.88751-1.77604-2.88751-2.405076 0-0.626867 0.96775-2.588866 1.50082-3.042716 0.84353-0.718185 2.81525-1.726259 4.31094-2.204035 1.27022-0.405755 1.64035-0.420743 3.04271-0.123215 0.87811 0.186304 1.87927 0.485357 2.2248 0.664564 0.78436 0.406804 1.20184 0.255353 1.57922-0.572893 0.21893-0.480514 0.5025-0.646903 1.10247-0.646903 1.07998 0 1.26283 0.598597 0.56313 1.843545-0.82782 1.472906-0.75418 2.543344 0.20924 3.041549 0.90958 0.470366 1.22215 1.228638 0.81785 1.984079-0.44819 0.837441-2.3866 0.535482-2.3866-0.371774 0-0.199731-0.3182-0.976471-0.70712-1.726086-1.0191-1.964267-2.4715-2.775797-4.61933-2.58104-1.83119 0.166048-3.56586 1.141603-3.81829 2.147356-0.39829 1.586929 1.50317 3.070704 3.93513 3.070704 2.99463 0 6.80763 1.93848 7.69835 3.913746 0.54113 1.200025 0.42561 1.8636-0.55148 3.167716-0.70582 0.942049-2.77965 2.117074-4.4508 2.521812-2.25678 0.546566-6.34717 0.344342-7.54063-0.3728-1.47072-0.883756-1.54488-0.884119-2.75726-0.01344-1.31422 0.9438-1.54385 0.996201-1.99315 0.454832z"/>
	<path d="m115.71203 23.061713c-0.26174-0.29829-0.80659-0.945297-1.21077-1.437794-0.61014-0.743475-0.82177-0.84969-1.24692-0.625829-0.28164 0.148292-1.77312 0.417503-3.3144 0.598247l-2.80234 0.328625-1.73341-0.827276c-1.94987-0.930589-2.23837-0.971648-2.96509-0.421987-0.74139 0.560764-1.66738 0.490308-1.86811-0.142141-0.11329-0.35694 0.14407-1.045 0.78634-2.102283l0.95475-1.571681 0.0159-4.437371c0.0106-2.9400044-0.0799-4.4693307-0.26819-4.5320806-0.15627-0.05209-0.65697-0.4429958-1.11267-0.8686797-0.45569-0.4256836-0.935-0.7739703-1.065136-0.7739703-0.51276 0-1.29493-1.099139-1.29493-1.8196864 0-1.7021464 1.526146-1.7408319 2.782546-0.070534 0.71523 0.9508379 0.82636 1.0078728 1.30739 0.6709473 0.28915-0.202525 0.71404-0.3682272 0.94422-0.3682272 0.23017 0 0.99506-0.3656476 1.69975-0.8125502 1.90545-1.2084003 3.30333-1.0709776 3.31621 0.3260095 4e-3 0.4098007-0.6687 1.062518-2.18041 2.1163502-1.15771 0.807052-1.74753 5.8477264-1.08879 9.3049144 0.29266 1.535959 0.52548 2.041829 1.30906 2.844283 0.82611 0.846018 1.15236 0.992576 2.44888 1.100093 0.82268 0.06822 1.88131 0.0176 2.3525-0.112507 1.12465-0.310529 2.45447-2.198217 2.45447-3.484122 0-1.942703 2.41032-2.608883 2.59785-0.718011 0.0464 0.467542-0.10246 1.135116-0.33073 1.483499-0.81735 1.247437-0.33838 3.140644 1.13654 4.492303 0.85781 0.786122 0.92428 0.943707 0.68506 1.624023-0.2088 0.59378-0.43114 0.756217-1.04931 0.766603-0.4723 0.0079-0.97372-0.2026-1.26028-0.529167z"/>
	<path d="m131.32816 22.850097c-0.23813-0.181901-0.50916-0.647164-0.60229-1.033918-0.14041-0.583099 0.0266-0.909781 0.97771-1.912889 2.00285-2.112271 2.25094-2.560325 1.95767-3.535485-0.21806-0.72506-0.38487-0.859916-1.06379-0.860029-0.44285-7.3e-5 -1.43154-0.238198-2.19708-0.529167-2.51907-0.957448-2.56948-0.921543-2.87886 2.050655-0.26403 2.53652-0.25822 2.587804 0.34747 3.064776 0.64951 0.511482 0.83257 1.805446 0.36094 2.551268-0.21222 0.335585-0.35123 0.315144-0.98814-0.145302-1.00908-0.729503-2.86872-1.239977-3.78446-1.038845-0.41485 0.09112-0.94436 0.455783-1.1767 0.810373-0.50044 0.76378-1.97738 0.891842-2.64029 0.228935-0.59451-0.594514-0.53387-0.802606 0.57642-1.978018 0.81184-0.859459 1.23143-1.082031 2.30841-1.224492 1.35133-0.178751 1.88415-0.578546 2.66075-1.996457 0.51621-0.94249 0.11219-2.887852-0.78636-3.786411-1.14954-1.149534-1.12142-1.638551 0.17238-2.997581 0.64262-0.6750204 1.49925-1.7473383 1.90363-2.3829294 0.40437-0.6355913 0.95415-1.2128706 1.22173-1.2828434 0.26757-0.069973 0.54928-0.2908368 0.62602-0.4908092 0.13713-0.3573666-0.89529-0.7545697-2.48417-0.9557321-0.53861-0.068192-0.66145-0.2299743-0.66145-0.8711235 0-0.6247865 0.15367-0.8414213 0.74417-1.0490898 0.60002-0.2110153 0.96097-0.1466999 1.86337 0.3320211 0.72791 0.3861551 1.85415 0.6604294 3.22139 0.7845062 1.72378 0.1564336 2.11861 0.2764089 2.19337 0.6665053 0.13252 0.6913912-0.43687 1.2440605-1.28169 1.2440605-0.76248 0-1.00283 0.2801681-2.69954 3.1467749-1.06376 1.7972304-0.97834 2.1750974 0.68171 3.0156604 0.77853 0.394202 1.63606 0.716732 1.90564 0.716732 0.26957 0 0.88298 0.380768 1.36314 0.846151 0.6304 0.611008 0.9532 0.765956 1.16159 0.557573 0.19404-0.194048 0.20402-0.449559 0.0305-0.780006-0.14197-0.270285-0.39127-1.493678-0.554-2.718651-0.16273-1.224974-0.35054-2.2818944-0.41736-2.3487114-0.0668-0.066817 0.048-0.5270018 0.25504-1.0226325 0.27826-0.6659743 0.30622-1.0860617 0.10713-1.6097121-0.46616-1.2260852-0.1141-1.7703088 1.76086-2.7219875 1.3427-0.6815204 1.84968-0.8230024 2.18842-0.6107235 0.79907 0.5007531 0.67556 1.3518341-0.33442 2.3043698l-0.94449 0.8907703v11.076387l0.72057 1.111295c0.39632 0.611212 0.86199 1.111295 1.03482 1.111295 0.49447 0 1.68419 1.565636 1.68419 2.216341 0 1.551264-1.53749 1.631949-3.14241 0.164909-0.63679-0.582084-1.26964-1.058334-1.40634-1.058334-0.4942 0-1.42117 0.61871-2.23381 1.490968-0.9146 0.981698-1.11492 1.045701-1.75135 0.559553z"/>
	<path d="m78.542884 22.508058c-0.326319-0.228564-0.59331-0.652357-0.59331-0.941761 0-0.491229 0.268991-0.812393 1.890599-2.257298 1.128485-1.005518 1.805434-3.59379 1.8317-7.003395 0.014128-1.832608-0.120841-3.5343189-0.344067-4.3383199-0.360305-1.2977273-0.389546-1.3254355-1.535774-1.4552084-0.909445-0.1029652-1.24096-0.2783755-1.495462-0.7912751-0.759595-1.530823 1.076669-2.3693355 2.785176-1.2718235 2.05718 1.3214932 2.139566 1.3447811 2.909125 0.8223253 0.388067-0.2634599 1.003234-0.502929 1.367036-0.532153s1.274033-0.1990032 2.022735-0.3772871c1.17752-0.2803962 1.524246-0.2619124 2.568601 0.1369303 1.203391 0.4595797 1.211104 0.458869 2.366137-0.2180257 1.399183-0.8199749 1.92722-0.851989 2.308294-0.1399471 0.361045 0.674623 0.116723 1.493556-0.552434 1.8516791-0.958662 0.5130599-0.385006 2.5418108 0.790882 2.7969776 1.217837 0.2642701 1.343702 0.3445361 1.343702 0.8568981 0 0.5815304-0.407564 0.9604524-1.256604 1.1682984-1.060424 0.259593-1.882246-0.378737-2.781885-2.1607579-1.022858-2.0261024-1.7805-2.4461904-4.287401-2.3772228-1.912342 0.052611-1.938869 0.06428-2.733212 1.2022688-0.443375 0.6351882-0.582565 1.2150313-0.582565 2.4268765 0 1.5777744 0.0082 1.5950024 0.904055 1.8906484 0.571728 0.188688 1.225354 0.215108 1.778117 0.07187 0.712869-0.184724 0.907944-0.392158 1.057788-1.124815 0.283363-1.3854904 1.24778-1.927385 2.196094-1.2339604 0.392814 0.287232 0.426324 0.453739 0.182862 0.9086484-0.572995 1.070652-0.357061 1.8235 0.781717 2.725428 1.632251 1.292767 1.917001 2.763646 0.630581 3.257291-0.58288 0.223672-1.940592-0.528118-2.273564-1.258915-0.439942-0.96557-1.515383-1.440562-3.140983-1.387286-0.800365 0.02623-1.604036 0.140793-1.785938 0.254582-0.5247 0.32823-0.37162 2.315547 0.275858 3.581252 0.471969 0.922616 0.830794 1.244959 1.77351 1.593196 1.820217 0.672382 2.300406 2.152036 0.874352 2.694221-0.492805 0.187364-0.9672 0.09036-2.039966-0.417143-0.787953-0.372762-1.874346-0.661282-2.489989-0.661282-0.934582 0-1.148736 0.109417-1.484328 0.758378-0.241972 0.467923-0.675243 0.815495-1.131274 0.907512-0.406506 0.08202-0.918593 0.218667-1.137978 0.303649-0.219382 0.08498-0.665866-0.03249-0.992187-0.261057z"/>
	<path d="m0.04374894 0.44925707c-0.08518937-0.1378393-0.04211216-0.3203173 0.09572715-0.4055067 0.13783932-0.0851893 0.32031732-0.0421121 0.40550672 0.0957272s0.0421122 0.3203173-0.0957272 0.4055067c-0.13783927 0.0851894-0.32031729 0.0421122-0.40550667-0.0957272z"/>
</svg>
