<?xml version="1.0" encoding="UTF-8"?>
<svg version="1.1" viewBox="0 0 264.69856 17.459633" xmlns="http://www.w3.org/2000/svg" xmlns:svg="http://www.w3.org/2000/svg">
	<title>Engraving of the words QUIS EST ISTE QUI VENIT</title>
	<g transform="translate(-1.7602849 -.85102237)">
		<path d="m164.57084 14.368304c0-0.145521-0.12609-0.264583-0.2802-0.264583s-0.20662 0.119062-0.11668 0.264583c0.0899 0.145521 0.21603 0.264583 0.2802 0.264583 0.0642 0 0.11668-0.119062 0.11668-0.264583z"/>
		<path d="m163.5125 14.107201c-0.30646-0.195362-0.33044-0.360201-0.10527-0.723553 0.45887-0.740461 1.29095-0.719409 1.79204 0.04534 0.55523 0.847399 0.91001 0.847899 1.82167 0.0026 0.97729-0.906198 0.97927-2.389347 6e-3 -4.3134494-0.87978-1.7388516-1.62448-2.1130142-2.97511-1.4948036-1.63322 0.7475479-2.53854 2.669497-2.12376 4.508588 0.22098 0.979817 1.17872 2.23974 1.69693 2.232363 0.15654-0.0022 0.10602-0.117902-0.11226-0.257052zm2.79697 3.338716c-0.51969-0.490126-0.94488-1.144969-0.94488-1.455209 0-0.472409-0.15653-0.564071-0.96321-0.564071-2.09804 0-4.68053-2.163865-4.6613-3.9057 0.0235-2.1305796 1.63918-4.3215316 3.5721-4.8440259 2.83232-0.7656168 4.75842 0.014137 6.0193 2.4368332l0.796 1.5294807-0.54609 1.459557c-0.49879 1.333142-1.58614 2.530105-2.29841 2.530105-0.13689 0-0.44689 0.2188-0.6889 0.486221-0.41161 0.454825-0.40694 0.516162 0.0723 0.94989 0.33648 0.30451 0.70717 0.401834 1.07991 0.283532 0.39369-0.124954 0.6806-0.03095 0.93658 0.306881 0.47522 0.627152 0.47207 0.759886-0.0299 1.261869-0.63738 0.637374-1.30788 0.501368-2.34351-0.475363z"/>
		<path d="m24.077084 13.309971c0.309264-0.199863 0.236256-0.257375-0.33073-0.260532-0.860259-0.0048-0.955177-0.528391-0.183182-1.010509 0.451363-0.281881 0.684437-0.270147 1.363566 0.06865 1.125106 0.561277 1.168467 0.543294 1.46007-0.605529 0.32398-1.276382 0.145045-2.5351392-0.520794-3.6636543-0.599444-1.0159806-1.537548-1.2365394-2.879912-0.6770991-1.072787 0.4470921-1.819435 1.8785902-1.819435 3.4882794 0 1.17048 0.116558 1.494744 0.773397 2.151583 0.798536 0.798535 1.449043 0.953418 2.13702 0.508814zm1.889984 3.160723c-0.488478-0.297806-0.948848-0.773611-1.023046-1.057345-0.104828-0.400862-0.366334-0.515878-1.172921-0.515878-1.998495 0-4.043263-1.566417-5.089105-3.898564-0.496936-1.1081278-0.496607-1.1187757 0.04891-1.5850916 0.302061-0.2582082 0.838599-1.0052507 1.192306-1.6600944 0.459809-0.8512783 0.957549-1.3366895 1.74636-1.7031043 0.641468-0.2979714 1.050561-0.6497997 0.977363-0.840551-0.06924-0.1804398 0.03896-0.4648901 0.240452-0.6321121 0.286555-0.2378191 0.441059-0.1844056 0.709376 0.2452389 0.188667 0.3021033 0.496808 0.5492786 0.684759 0.5492786 0.399122 0 1.707915 0.5880153 2.838274 1.2751808 1.036143 0.6298905 2.084985 2.7858231 1.872395 3.8487751-0.20007 1.000349-1.255932 2.389329-2.273011 2.990133-1.281798 0.757176-0.78809 2.153134 0.663368 1.87567 0.917631-0.175416 1.570244 0.349247 1.339342 1.076755-0.240104 0.756503-1.541404 0.771481-2.754818 0.03171z"/>
		<path d="m232.89948 16.838909c-0.49773-0.200839-0.40112-0.646761 0.30284-1.397794 0.7885-0.841232 1.13199-2.547231 0.95459-4.741173-0.12105-1.4971008-0.23141-1.7635056-0.99445-2.4005179-0.47206-0.3940927-0.85829-0.9016418-0.85829-1.1278872 0-0.6114378 0.72126-1.1281055 1.12448-0.8055115 0.79081 0.6326856 1.55935 0.6504929 2.19756 0.050919 0.52304-0.4913659 0.70053-0.5354315 1.03583-0.2571605 0.5932 0.4923105 0.49723 0.9531426-0.32297 1.5509409-0.71881 0.5238905-0.72761 0.5661233-0.72761 3.4907482v2.960442l0.88439 0.738221c0.55158 0.460418 0.84926 0.922409 0.79105 1.227674-0.11709 0.613966-1.27856 0.839538-1.27856 0.248312 0-0.22563-0.31827-0.490115-0.70725-0.587744-0.56786-0.142524-0.81751-0.03923-1.26671 0.524126-0.58499 0.733646-0.60188 0.741481-1.1349 0.526405z"/>
		<path d="m228.05406 16.332459c-0.24882-0.299804-0.59372-0.370654-1.22648-0.251946-0.9755 0.183005-1.44843-0.357891-0.89547-1.024165 0.16594-0.199952 0.59704-0.942577 0.95799-1.650276 1.08832-2.133841 0.47174-4.6167545-1.23105-4.9573129-0.71054-0.1421082-0.99385-0.044952-1.62904 0.5586558-1.25041 1.1882311-1.58685 2.0776701-1.45828 3.8551641 0.0883 1.220424 0.24684 1.691507 0.69019 2.050509 0.31657 0.256343 0.57558 0.655354 0.57558 0.886689 0 0.533742-0.88645 0.549646-1.32291 0.02374-0.47106-0.567591-1.55977-0.489745-2.07658 0.148481-0.2882 0.355916-0.60163 0.483945-0.9023 0.368568-0.6994-0.268383-0.55179-1.077619 0.30827-1.690032 0.61626-0.438822 0.80755-0.823325 0.96323-1.936245 0.42808-3.0602446 0.054-4.6959807-1.07396-4.6959807-0.92569 0-1.60514-1.084875-1.14296-1.8249481 0.61173-0.9795361 1.54305-1.0035743 1.54305-0.039828 0 0.6601735 0.56615 0.8266292 1.7241 0.5069038 1.12415-0.3103922 1.71548-0.1582558 1.71548 0.4413562 0 0.3163617 0.15009 0.3769965 0.59531 0.2405052 0.32742-0.1003769 0.71845-0.2802499 0.86895-0.399718 0.32943-0.261507 2.10409 0.1044689 2.6323 0.5428411 0.56881 0.4720728 1.7243 2.5454045 1.72406 3.0935435-1.1e-4 0.265129-0.3573 1.236883-0.79375 2.159455-0.43644 0.922571-0.79354 1.772867-0.79354 1.889546s0.30276 0.28813 0.67279 0.381003c0.80654 0.202428 1.09651 0.805856 0.64733 1.347084-0.41554 0.500695-0.64132 0.495728-1.07231-0.02359z"/>
		<path d="m242.14667 16.432059c-0.49111-0.491111-0.39094-0.768289 0.60854-1.683773 1.00223-0.918004 1.09931-1.534028 0.94149-5.9740651-8e-3 -0.2390923-0.20158-0.5061405-0.42908-0.59344-0.49691-0.190682-1.93642 0.5067019-2.13977 1.0366329-0.0797 0.2077281-0.5532 0.63001-1.0522 0.9384042-0.7104 0.439052-0.98834 0.493426-1.28093 0.250593-0.46951-0.389657-0.26341-0.9713401 0.40621-1.1464498 0.65712-0.1718397 1.06066-1.2167882 0.72038-1.8653698-0.36969-0.7046324 0.10505-1.0815232 1.02859-0.8165893 2.08201 0.5972601 6.66111 0.4051096 7.2498-0.3042197 0.37829-0.4558133 1.08729-0.4814001 1.51405-0.05464 0.5037 0.5036995 0.37242 0.9917409-0.35607 1.3236612-0.96234 0.438473-0.75708 1.2580232 0.40899 1.6329571 0.63971 0.2056903 0.92604 0.4571963 0.92604 0.8134088 0 0.4089005-0.18899 0.5184505-0.91287 0.5291665-0.77311 0.01145-1.03643-0.155606-1.7198-1.0910552-0.4438-0.6075132-0.96437-1.172633-1.15681-1.2558217-1.91219-0.8265975-2.55384 5.6925899-0.66981 6.8053089 0.50999 0.301201 0.44766 1.490506-0.0889 1.696404-0.25171 0.09659-0.49333 0.03307-0.5528-0.14532-0.39035-1.171077-1.78945-1.453947-2.17505-0.439752-0.27195 0.715292-0.7651 0.848854-1.27 0.343959z"/>
		<path d="m254.13229 16.27502c-0.7276-0.04751-1.43602-0.198295-1.57427-0.335085-0.56756-0.561589 0.42089-0.830126 3.20048-0.869494l2.87171-0.04067v-4.233333l-5.55625-0.013v-3.6704981c0-3.9513664 0.21633-4.7750117 1.10898-4.2223174 0.51778 0.3205839 0.53703 0.73647 0.20223 4.3683674l-0.1861 2.0188122 1.95098 0.1237795c1.07305 0.068079 2.07006 0.016732 2.21558-0.1141042s0.2656-1.5117211 0.26685-3.0686333c2e-3 -2.7294487 0.0235-2.8337734 0.59489-2.9152417 0.82675-0.117874 1.20371 0.9360542 0.86292 2.412626-0.14108 0.611297-0.25943 1.6729679-0.26298 2.3592685l-6e-3 1.2478215 5.68854 0.150194 0.0891 0.7937496c0.049 0.436563 0.25736 0.888964 0.46302 1.005335 0.55729 0.315357 0.51573 3.0579-0.0497 3.274857-0.52112 0.199967-0.8899-0.337042-0.8953-1.303629-6e-3 -0.998974-0.46921-0.916186-0.74091 0.132291-0.12255 0.472943-0.39384 0.859896-0.60287 0.859896-0.57005 0-0.67171-2.428076-0.12687-3.030119 0.39281-0.434043 0.2857-0.462552-1.86297-0.495859l-2.27974-0.03534 0.14639 2.86698 0.14639 2.866981-2.17038-0.02363c-1.19371-0.013-2.76569-0.0625-3.4933-0.110009z"/>
		<path d="m176.30437 15.813759c-0.26881-0.203658-1.02452-0.378029-1.67937-0.387492-1.98961-0.02875-4.48408-2.139537-4.1415-3.504488 0.0884-0.352282 0.69299-1.434209 1.34349-2.4042827 0.81546-1.2160583 1.05973-1.7637703 0.78661-1.7637703-0.87627 0-1.95735-0.8023452-1.95735-1.4526937 0-0.9147058 1.01564-1.4421508 1.50041-0.7791941 0.19342 0.2645193 0.35168 0.570063 0.35168 0.6789858 0 0.1089232 0.43442 0.234995 0.96539 0.2801596 1.58366 0.1347084 1.70929 0.7629316 0.4301 2.1506904-1.42017 1.540708-1.73556 3.139571-0.88936 4.508738 0.63137 1.021583 1.01551 1.231821 2.22748 1.219094 1.83121-0.01923 2.79211-1.645978 2.61786-4.4318733-0.11283-1.8040158-0.1693-1.9523547-0.88392-2.3218985-0.88968-0.4600694-1.00584-1.2911354-0.23791-1.7021166 0.42103-0.2253321 0.61678-0.1745956 0.98484 0.2552742 0.59047 0.6896222 1.06762 0.6789661 1.64721-0.036787 0.29373-0.3627456 0.62511-0.5115493 0.9023-0.4051786 0.60192 0.2309778 0.55156 1.3094781-0.0795 1.7036112-0.77844 0.4861435-1.13656 2.2199472-0.92496 4.4780786 0.16966 1.810476 0.24179 1.990089 0.94542 2.353949 0.81385 0.420856 1.03618 1.349959 0.38303 1.600598-0.2083 0.07993-0.7298-0.114232-1.15889-0.431473-0.64108-0.473967-0.88017-0.523283-1.34107-0.276616-0.30849 0.165103-0.5609 0.402321-0.5609 0.527153 0 0.426931-0.7418 0.512214-1.23105 0.141532z"/>
		<path d="m182.93818 15.921505c-0.10431-0.168764 0.23446-0.694367 0.77813-1.207288l0.96286-0.908401v-2.62917c0-2.7558518-0.11571-3.0600369-1.45949-3.8366857-0.31499-0.1820545-0.42573-0.441171-0.31351-0.7336052 0.25849-0.6736241 1.00276-0.8631893 1.37741-0.3508269 0.43854 0.5997429 1.16787 0.5522756 1.88643-0.1227756 0.33903-0.3185073 0.77695-0.4943168 1.00924-0.4051789 0.57316 0.2199415 0.51681 1.4213823-0.0817 1.7416866-1.23612 0.6615506-1.15385 5.9203217 0.1112 7.1081937 1.25459 1.178044 0.62855 2.002729-0.83409 1.098764-0.77531-0.479169-1.05353-0.529946-1.58268-0.288852-0.3531 0.160883-0.642 0.41413-0.642 0.56277 0 0.367186-0.98153 0.343995-1.21182-0.02863z"/>
		<path d="m202.60943 15.691225c-0.3994-0.63954-0.5346-0.64783-1.6824-0.103161-0.51565 0.244689-1.09572 0.344056-1.36291 0.233464-0.25583-0.105897-1.12706-0.208302-1.93606-0.227567-1.19841-0.02854-1.63955-0.174895-2.38125-0.790043-1.79446-1.488271-1.96016-2.722087-0.62602-4.661574 0.52018-0.7562101 0.88254-1.5397144 0.80526-1.7411202-0.0773-0.2014061-0.56242-0.5424736-1.07808-0.7579278-0.99241-0.4146555-1.10539-0.6690788-0.66366-1.4944639 0.34888-0.6518904 1.18081-0.658527 1.63294-0.013025 0.25214 0.3599873 0.64278 0.4888071 1.40406 0.4630208 0.90535-0.030665 1.06671 0.048588 1.13928 0.5595871 0.0465 0.3274218-0.0272 0.5953124-0.16385 0.5953124-0.35535 0-1.64077 3.0743566-1.63901 3.9200436 7.9e-4 0.39059 0.12521 1.15572 0.27645 1.700289 0.45598 1.641905 2.20434 1.704727 3.67823 0.132166 0.74661-0.79659 0.80398-0.998313 0.80512-2.830927 1e-3 -1.9151326-0.0273-2.0024075-0.967-2.9647706-0.8175-0.8371932-0.91543-1.0551702-0.62906-1.4002181 0.42862-0.5164579 0.91033-0.5207198 1.3327-0.011792 0.45386 0.5468678 1.23333 0.496697 2.12276-0.1366316 0.72529-0.5164513 0.75428-0.5176427 0.90674-0.037274 0.21462 0.6762157-0.0664 1.3121356-0.6635 1.5016625-0.66328 0.2105159-0.88481 1.5316656-0.7026 4.1900628 0.12765 1.862464 0.2329 2.215645 0.79839 2.679336 0.35825 0.293751 0.73283 0.801984 0.8324 1.129406 0.14696 0.483223 0.0785 0.595312-0.3637 0.595312-0.29962 0-0.69347-0.238125-0.87523-0.529167z"/>
		<path d="m212.92344 14.466172c0.40007-0.107215 0.59531-0.360502 0.59531-0.772308 0-0.405585-0.20128-0.673809-0.59531-0.7933-0.32742-0.09929-0.84807-0.411515-1.15701-0.693827-0.43187-0.394662-0.85993-0.492985-1.85208-0.425421-1.24996 0.08512-1.28863 0.112518-1.23412 0.874434 0.11207 1.56668 2.05671 2.396383 4.24321 1.810422zm1.83644 1.217553c-0.61039-0.480137-0.80901-0.504805-1.88436-0.234031-2.62319 0.660528-5.03258-0.457617-6.33745-2.94107l-0.76298-1.452111 0.68272-1.05606c1.27918-1.9786857 1.82532-2.5307547 3.1854-3.219958 1.20031-0.6082405 1.48232-0.6561219 2.40848-0.4089151 0.81422 0.2173258 1.20826 0.197634 1.76058-0.087983 0.61554-0.318304 0.75583-0.3146737 1.0393 0.026894 0.26549 0.3199 0.23686 0.4952608-0.15081 0.9236328-0.46483 0.5136338-0.45679 0.5514491 0.28109 1.3216284 0.72202 0.7536333 0.7368 0.8155944 0.29851 1.2522114-0.43797 0.4362965-0.52109 0.3950415-1.65635-0.822167-1.14215-1.2245958-1.24762-1.2762848-2.37482-1.1637954-0.64877 0.064745-1.21861 0.165176-1.26631 0.22318-0.39827 0.4843418-1.49121 2.2549579-1.49121 2.4158399 0 0.111741 0.59531 0.203164 1.32292 0.203164 1.11777 0 1.32291-0.07704 1.32291-0.496769 0-0.6348009 0.66818-1.1955326 1.18726-0.9963429 0.42597 0.1634612 0.56506 1.2285289 0.16043 1.2285289-0.1319 0-0.18134 0.223612-0.10987 0.496915 0.14647 0.560079 1.22417 1.144527 1.7432 0.945354 0.1878-0.07207 0.56148 0.02985 0.83039 0.226484 0.40109 0.293288 0.43516 0.457979 0.18962 0.91676-0.46292 0.864986 0.11375 1.912404 1.05291 1.912404 0.87474 0 1.2006 0.403463 0.75728 0.937631-0.45081 0.543193-1.38822 0.478344-2.18884-0.151425z"/>
		<path d="m132.63894 15.260538c-0.10386-0.270654 0.0466-0.590586 0.40496-0.860866 0.73328-0.553116 1.09985-1.857939 1.09985-3.914953 0-1.8208051-0.33748-2.9955333-0.86057-2.9955333-0.18948 0-0.65794 0.3571874-1.04101 0.7937499-0.7909 0.9013258-1.30207 0.9918842-1.94872 0.3452339-0.42163-0.4216326-0.40691-0.4843071 0.24568-1.0456423 0.46677-0.4014954 0.6942-0.8613327 0.6942-1.4035671 0-0.9154043 0.57721-1.0844283 1.34143-0.3928144 0.76423 0.6916194 4.49866 0.5105069 5.69967-0.2764227 0.69212-0.4534939 0.73368-0.4531129 1.07219 0.00983 0.30355 0.4151193 0.27254 0.5663671-0.22455 1.0954974l-0.57671 0.6138849 0.57732 0.7808703c0.31753 0.4294785 0.57732 0.9572582 0.57732 1.1728436 0 1.1693508-1.69519 0.4169093-1.97977-0.8787542-0.10103-0.4599675-0.39567-0.8611806-0.70439-0.959165-0.29189-0.092644-0.55717-0.1278065-0.5895-0.078139-0.44407 0.6822368-0.69509 1.9103889-0.69509 3.400838 0 1.656524 0.0754 1.916317 0.79375 2.734459 0.80862 0.920968 1.08099 2.289381 0.45568 2.289381-0.18594 0-0.54196-0.238125-0.79116-0.529166-0.25195-0.294252-0.78051-0.529167-1.19063-0.529167s-0.93868 0.234915-1.19062 0.529167c-0.54919 0.641402-0.94809 0.674982-1.16933 0.09844z"/>
		<path d="m50.070155 14.905932c-0.408297-0.659252-2.111356-0.76128-2.349473-0.140753-0.193437 0.504087-1.388065 0.519723-1.579568 0.02067-0.189386-0.493531 0.345379-1.475882 0.803429-1.475882 0.499374 0 0.644723-0.498542 0.831297-2.851307 0.173987-2.1940787-0.08167-2.9285318-1.069886-3.0735711-0.733131-0.107601-1.133191-0.8417133-0.772371-1.4173093 0.34604-0.5520158 1.371862-0.756117 1.774851-0.3531301 0.15784 0.1578414 0.590593 0.2731727 0.961671 0.2562923 0.448429-0.020399 0.519411-0.07127 0.211666-0.1516922-0.591264-0.1545132-0.585578-0.418438 0.02082-0.9672335 0.693111-0.6272554 1.240351-0.5448067 2.22395 0.3350654l0.864071 0.7729479-0.55772 0.7484061c-0.306748 0.4116237-0.723467 0.7484065-0.926042 0.7484065-0.624517 0-0.831109 0.6523013-0.968224 3.057076l-0.132038 2.31575 1.110168 0.700819c0.837359 0.528601 1.089837 0.84372 1.02743 1.282337-0.10968 0.770863-1.040683 0.892827-1.474044 0.193104z"/>
		<path d="m97.366668 14.919542c0-0.278905 0.303749-0.728364 0.674997-0.9988 1.451398-1.057271 1.515128-6.167018 0.07691-6.167018-0.302368 0-0.967954 0.3671786-1.479081 0.8159524-0.844183 0.7412032-0.967344 0.7779263-1.344407 0.4008647-0.37706-0.3770617-0.3591-0.4908132 0.196049-1.2416919 0.537567-0.7271012 0.569878-0.9036931 0.268401-1.4670063-0.289877-0.5416404-0.278749-0.7043867 0.07216-1.0552977 0.346191-0.3461903 0.517683-0.3598844 1.035616-0.082696 0.341397 0.1827095 0.78051 0.4919889 0.975807 0.6872871 0.195299 0.1952982 0.620427 0.3550878 0.944732 0.3550878 0.324302 0 0.718836 0.1291944 0.876742 0.2870988 0.206409 0.2064096 0.515026 0.1692291 1.098106-0.1322917 0.44606-0.2306647 1.04047-0.4193904 1.32092-0.4193904s0.65813-0.1785938 0.83929-0.396875c0.46276-0.5575937 1.25257-0.4935326 1.58552 0.1286015 0.22533 0.421037 0.1746 0.6167768-0.25527 0.9848429-0.75203 0.6439034-0.66843 1.0429818 0.25725 1.2281179 0.8803 0.1760601 1.02215 0.6995305 0.36707 1.3546081-0.39251 0.3925134-0.48122 0.3909407-1.10784-0.019643-0.37465-0.2454751-0.97137-0.791201-1.32606-1.212724-0.61625-0.7323738-0.6673-0.7461226-1.14963-0.3096204-0.43759 0.3960108-0.49774 0.7929305-0.45209 2.9832692 0.0519 2.492007 0.0644 2.536894 0.91442 3.289427 1.2757 1.129419 0.55133 2.113438-0.80217 1.089704-0.66107-0.500006-1.589755-0.496274-2.094442 0.0084-0.578483 0.578484-1.493007 0.510968-1.493007-0.110221z"/>
		<path d="m111.29764 15.039499c-0.0871-0.226924 0.13489-0.610106 0.53636-0.9259 0.76519-0.601901 1.11558-1.920546 1.12751-4.2432085 9e-3 -1.6856436-0.10122-1.8968534-1.17505-2.2587668-0.6442-0.2171144-0.79375-0.4158686-0.79375-1.0548963 0-0.5967894 0.13369-0.8064799 0.55232-0.8662921 0.30377-0.043403 0.70531 0.1054256 0.89229 0.3307291 0.46849 0.5644936 1.51552 0.5130085 2.31225-0.1136994 0.50838-0.3998933 0.78347-0.4601088 1.16621-0.2552742 0.73952 0.3957775 0.61388 0.8942096-0.42515 1.68672-0.92236 0.7035143-0.92594 0.7144366-0.89967 2.7433822 0.0342 2.640282 0.21907 3.23331 1.17213 3.759671 0.43223 0.238715 0.82392 0.692923 0.87042 1.009351 0.0683 0.464916-0.0475 0.575325-0.60362 0.575325-0.37849 0-0.7567-0.178594-0.84046-0.396875-0.0996-0.259486-0.51174-0.396875-1.19062-0.396875-0.67889 0-1.09105 0.137389-1.19063 0.396875-0.19558 0.509679-1.31592 0.516898-1.51054 0.0097z"/>
		<path d="m119.625 15.069929c-0.22624-0.272599-0.16653-0.473928 0.25322-0.853796 0.4566-0.413215 0.52067-0.687832 0.37973-1.627661-0.12647-0.843344-0.0814-1.12955 0.1774-1.126528 0.5115 6e-3 0.82842 0.299431 1.28143 1.186573 0.27611 0.540724 0.76443 0.918819 1.53187 1.186092 0.99983 0.348204 1.20723 0.347268 1.84364-0.0083 0.55113-0.307928 0.73645-0.634367 0.80075-1.410483 0.12826-1.54809-0.45152-2.016254-2.49694-2.016254-3.81234 0-5.07829-2.1523156-2.13345-3.6271956 2.02115-1.0122648 2.43439-1.1078061 3.6298-0.8392146 0.7636 0.1715696 1.22332 0.1648119 1.40884-0.020709 0.15146-0.1514594 0.48969-0.2753805 0.75163-0.2753805 0.55295 0 0.64163 0.7848264 0.14552 1.287812-0.26506 0.2687293-0.23134 0.4086873 0.16981 0.704833 0.2753 0.2032368 0.62414 0.4107209 0.77521 0.4610761 0.38631 0.1287703 0.0167 0.9633794-0.51734 1.1683253-0.29951 0.1149358-0.68178-0.095423-1.17354-0.6457944-0.9436-1.0560735-1.59039-1.3887521-2.70001-1.3887521-0.70871 0-0.96648 0.1438029-1.20801 0.6739078-0.5754 1.2628646-0.43119 1.4427588 1.15665 1.4427588 1.88658 0 3.04727 0.4992936 3.96855 1.7071592l0.73952 0.969557-0.55149 0.976746c-0.30332 0.53721-0.92843 1.202114-1.38912 1.477564-1.04178 0.622887-3.41289 0.675518-4.29825 0.09541-0.5768-0.377935-0.6569-0.362565-1.18185 0.226786-0.64265 0.721499-0.94304 0.782187-1.36357 0.275484z"/>
		<path d="m149.50698 13.829831c0.77965-0.417255 0.61945-0.884529-0.57031-1.663484-0.83636-0.547585-1.40712-0.708457-2.51354-0.708457-1.64109 0-1.75322 0.218162-0.87616 1.704668 0.52866 0.896013 0.6247 0.941166 2.00177 0.941166 0.79556 0 1.67676-0.123252 1.95824-0.273893zm-3.72156 1.259958c-1.4264-0.7-2.05126-1.304117-2.63254-2.545186l-0.60526-1.292242 0.58214-1.7493185c0.32017-0.9621252 0.67536-1.7493185 0.78929-1.7493185 0.11394 0 0.61025-0.3588303 1.10291-0.797401 0.87896-0.7824556 0.93431-0.7942013 2.95317-0.6266923 1.73384 0.1438606 2.13657 0.099072 2.56072-0.28478 0.6818-0.6170189 1.59957-0.3169822 1.59957 0.5229309 0 0.3467648-0.20737 0.7465301-0.46082 0.8883674-0.51238 0.2867413-0.27366 0.6858581 0.41335 0.6910755 0.55252 0.0042 0.76418 1.1769181 0.26905 1.4907552-0.65182 0.4131653-1.07014 0.2393289-2.07842-0.86372-0.8839-0.9669616-1.13904-1.0961309-2.16517-1.0961309-1.45679 0-2.20458 0.392385-2.74708 1.4414655-0.5232 1.0117647-0.2376 1.2699707 1.41128 1.2759117 1.00874 0.0036 1.12448-0.06069 1.12448-0.6250102 0-0.9183989 0.62305-1.3559152 1.16259-0.8163809 0.49604 0.4960382 0.5259 0.7094471 0.15165 1.0836991-0.15029 0.150292-0.19709 0.47176-0.10399 0.714375 0.17094 0.44545 0.39193 0.511972 1.83245 0.551583 0.74741 0.02055 0.79037 0.07961 0.73582 1.011464-0.0504 0.860869 0.0464 1.043596 0.744 1.404337 0.58372 0.301855 0.77948 0.572539 0.7194 0.994738-0.11842 0.832104-1.35052 0.936813-1.89395 0.160956-0.39699-0.566793-0.4313-0.570224-1.34865-0.134914-1.23274 0.584977-3.28158 0.758917-4.11599 0.349436z"/>
		<path d="m39.009154 14.816576c-0.09171-0.238976-0.68049-0.340932-1.909927-0.330729-2.531401 0.02101-4.124886-0.637718-4.636214-1.916547-0.461439-1.154055-0.309798-1.558024 1.393925-3.7133953 0.901602-1.1406115 0.997136-1.366767 0.577361-1.366767-0.620316 0-2.32814-0.6961103-2.537026-1.0340927-0.18052-0.2920886 1.213075-1.3471572 1.779405-1.3471572 0.214378 0 0.546362 0.188672 0.737743 0.4192712 0.268404 0.3234068 0.617016 0.3789246 1.52468 0.2428118 0.848698-0.1272702 1.239006-0.078197 1.400172 0.1760413 0.345612 0.5451972 0.30783 0.6223365-0.927261 1.89315-1.839534 1.8927428-2.306299 4.9078299-0.845744 5.4631319 0.843222 0.320593 2.960339 0.157588 3.472358-0.26735 0.983078-0.815883 1.505955-2.703109 1.267325-4.5741633-0.126722-0.993605-0.293635-1.3270179-0.75147-1.5010859-0.737706-0.2804758-1.005779-0.9424971-0.650473-1.6063906 0.347869-0.6499976 0.648997-0.6418022 1.611935 0.04387 0.768358 0.5471184 1.011568 0.5385451 1.847575-0.065127 0.234881-0.1696064 0.621834-0.2336321 0.859895-0.1422797 0.681742 0.2616094 0.50723 1.2238193-0.370699 2.0439281-0.801688 0.7488901-0.80336 0.7565654-0.727605 3.3401584 0.07073 2.412122 0.118248 2.610593 0.693518 2.89677 1.086599 0.540544 1.260475 0.852803 0.755862 1.357418-0.377235 0.377234-0.545965 0.399749-0.97726 0.130402-0.627454-0.391853-2.020427-0.42963-2.24827-0.06097-0.236371 0.382454-1.183955 0.325241-1.339805-0.08089z"/>
		<path d="m53.221364 14.927861c-0.589576-0.373631-0.245173-1.212048 0.53507-1.302575 0.828124-0.09608 1.12368-0.671188 0.726411-1.41349-0.397833-0.74336-0.101936-1.337356 0.615452-1.235486 0.419426 0.05956 0.620414 0.291026 0.677074 0.779744 0.271442 2.34138 4.285046 2.664637 4.285046 0.345119 0-0.843017-0.468712-1.096487-2.255737-1.219858-1.944354-0.134231-4.094263-1.4155931-4.094263-2.4402113 0-1.4569566 2.89215-2.9824578 5.011764-2.6435181 0.704604 0.1126707 1.06194 0.040093 1.317255-0.2675424 0.415383-0.5005041 1.112795-0.5474247 1.555565-0.1046554 0.490799 0.4907983 0.377121 1.1658694-0.268513 1.5945539l-0.586012 0.3890976 0.718304 0.6657017c0.766972 0.7108044 0.927275 1.2472288 0.387575 1.2969477-0.954598 0.087941-1.489221-0.1838912-2.493635-1.2679044-0.909531-0.981615-1.213201-1.1587688-1.719791-1.0032878-0.91848 0.2818979-1.276678 0.650758-1.276678 1.3146828 0 0.853582 0.443902 1.1069838 2.310357 1.3188729 1.303184 0.1479436 1.899529 0.3785588 2.844271 1.0999248 0.657455 0.502003 1.195372 0.989209 1.195372 1.082679s-0.267891 0.565261-0.595313 1.048426c-0.403712 0.595744-1.045572 1.04808-1.994299 1.405435-1.687812 0.635744-2.724851 0.665575-3.800526 0.109322-0.761272-0.393668-0.841197-0.386077-1.392975 0.132292-0.624925 0.587086-1.126689 0.680178-1.701774 0.31573z"/>
		<path d="m76.993751 13.464857c0.991121-0.357497 1.445048-1.208889 0.611785-1.147472-0.518588 0.03822-1.934702-0.788236-1.934702-1.129113 0-0.114816-0.595312-0.213368-1.322916-0.219004-1.240187-0.0096-1.322917 0.03144-1.322917 0.656414 0 0.384058 0.32785 0.99451 0.773398 1.440058 0.851212 0.851211 1.661409 0.95241 3.195352 0.399117zm2.070518 1.123309c-0.681143-0.537041-0.748133-0.54169-1.791293-0.1243-1.651939 0.660976-3.43236 0.568414-4.527301-0.235368-1.970566-1.446566-2.684965-2.891221-2.557468-5.1717166 0.09171-1.6403385 0.119261-1.6975076 0.930233-1.9300914 0.45965-0.1318257 0.906095-0.4613912 0.992097-0.7323677 0.08601-0.2709764 0.237646-0.5078796 0.336982-0.5264515 2.252424-0.4211198 3.305577-0.478138 4.241673-0.2296464 0.583779 0.1549673 1.04571 0.1355119 1.354016-0.057028 0.25737-0.1607314 0.662312-0.2176536 0.899869-0.1264941 0.505018 0.1937933 0.574262 1.2570965 0.111971 1.7193883-0.250214 0.2502149-0.192341 0.4093345 0.265515 0.7300298 0.47226 0.3307845 0.532326 0.5093695 0.310642 0.9235887-0.389969 0.7286648-0.942867 0.6369267-1.611447-0.2673749-0.662094-0.8955304-1.017646-1.0715553-2.46497-1.2203467-1.149982-0.1182232-1.782355 0.282516-2.433836 1.5423414-0.45815 0.8859662-0.186285 1.0701093 1.387131 0.9395433 0.826191-0.06856 1.037595-0.2036675 1.163902-0.7438453 0.08489-0.363038 0.349449-0.6976427 0.58791-0.7435664 0.509934-0.098204 1.144436 0.8852986 0.73457 1.1386099-0.444209 0.2745367-0.296397 1.1558056 0.24221 1.4440586 0.279128 0.149385 0.872607 0.198589 1.318843 0.109343 0.609256-0.121852 0.85267-0.05454 0.977302 0.270235 0.09128 0.237876 0.04729 0.579814-0.09775 0.759862-0.424823 0.527355 0.09 1.4263 0.998146 1.742881 0.582679 0.203123 0.808262 0.433125 0.746122 0.760731-0.127973 0.674659-1.275617 0.689844-2.115071 0.02798z"/>
		<path d="m83.765264 14.937338c-0.07639-0.123594 0.154715-0.479994 0.513554-0.792 0.698113-0.607002 0.83925-1.336466 0.352718-1.822999-0.416554-0.416554-0.08614-1.129035 0.523598-1.129035 0.658968 0 1.030946 0.473456 1.141767 1.453254 0.184541 1.631554 2.857767 1.887561 3.599415 0.344705 0.658122-1.369097-0.235722-2.269228-2.451523-2.468767-0.436563-0.03931-1.355567-0.315352-2.042229-0.6134198-1.720464-0.7468216-1.93189-1.5856944-0.701527-2.783471 1.229445-1.1968831 2.347508-1.5935207 3.955174-1.4031163 0.729221 0.086365 1.632654 0.040383 2.007632-0.1021821 0.987782-0.375554 1.504257 0.1342864 1.315342 1.2984421-0.08116 0.5001514-0.02164 1.144643 0.132244 1.4322033 0.210328 0.3930049 0.18651 0.6161394-0.09592 0.8985665-0.513823 0.5138229-1.13824 0.2152912-1.762413-0.8426042-0.999871-1.6946554-4.234127-1.4697125-3.574741 0.2486236 0.16713 0.4355341 1.174531 0.8533751 2.494119 1.0344904 1.412679 0.1938919 3.413146 1.5037965 3.423327 2.2415935 0.01098 0.795605-0.97949 2.117853-1.976011 2.637919-0.882264 0.460436-3.78297 0.532225-4.533517 0.1122-0.321103-0.1797-0.566184-0.146325-0.824833 0.112324-0.408374 0.408373-1.28071 0.491907-1.496179 0.143273z"/>
		<path d="m3.5903374 14.550597c-0.5045501-0.372674-0.5045501-0.380392 0-0.640505 0.284516-0.146677 1.7704168-0.21926 3.3549752-0.163882l2.8442709 0.0994v-2.236581c0-1.23012-0.1083506-2.3035455-0.2407788-2.3853909-0.1324285-0.0818421-1.7316961-0.156235-3.5539284-0.1653147-3.7821502-0.018845-4.1834355-0.1935446-3.6122202-1.5725803 0.3752042-0.9058233 0.1857441-3.0052712-0.3970847-4.400177-0.3469559-0.8303821-0.3308203-0.9025875 0.3152685-1.4108009 1.5827596-1.2449988 2.054218-0.4972957 1.8148989 2.8783141-0.1373309 1.9370613-0.1020408 2.6680246 0.1359096 2.8150858 0.1767734 0.109252 1.4276387 0.2565032 2.7797006 0.3272248l2.4582943 0.1285848-0.1150776-1.7945138c-0.0632928-0.9869826-0.2441813-1.9500741-0.4019746-2.1402034-0.1577932-0.1901293-0.2177994-0.4574915-0.1333468-0.5941385 0.0844523-0.1366469-0.0243602-0.3167194-0.2418056-0.4001611-0.6138585-0.2355598-0.4826516-1.3568079 0.1999572-1.7087627 0.6324881-0.32611239 0.6482207-0.32761536 3.5057291-0.3349136 4.025916-0.0102824 5.556641 0.2840567 5.772631 1.1100046 0.290454 1.1106965-1.036305 1.760869-3.259089 1.597103-1.117891-0.082362-3.553427-0.012353-3.671311 0.1055317-0.06131 0.061311-0.157584 0.7398824-0.213938 1.5079352-0.15896 2.1664498 0.159867 2.4300464 3.074888 2.5422266 2.047487 0.078795 2.448292 0.1686586 2.679557 0.6007806 0.149568 0.2794698 0.202039 0.6212324 0.116602 0.7594721-0.08544 0.1382398 0.02812 0.6061165 0.252347 1.0397256 0.742935 1.436677 0.411982 3.457232-0.50842 3.104041-0.242192-0.09294-0.363008-0.294117-0.268481-0.447065 0.224408-0.363099-0.614532-1.641695-0.943701-1.438257-0.139128 0.08599-0.25296 0.432388-0.25296 0.769784 0 0.86805-0.623531 1.339828-1.11769 0.845669-0.269015-0.269016-0.33516-0.716027-0.226469-1.530487 0.142404-1.067084 0.215869-1.156494 1.01343-1.233393 0.969794-0.09351 1.15194-0.6682169 0.348123-1.0984063-0.643164-0.344211-2.579583-0.3587007-2.788377-0.0208651-0.086009 0.1391653-0.301395 0.1999472-0.478636 0.1350711-0.828189-0.3031463-1.044522 0.3177035-1.006085 2.8873403l0.03808 2.545394-1.0000397 0.01237c-0.5500216 0.0068-2.071602 0.07316-3.3812896 0.147465-1.8140299 0.102915-2.5029012 0.04524-2.8919543-0.242124z"/>
	</g>
</svg>
