<?xml version="1.0" encoding="utf-8"?>
<svg xmlns="http://www.w3.org/2000/svg" version="1.0" viewBox="0 0 570 44">
	<title>Engraving of the words QUIS EST ISTE QUI VENIT.</title>
	<path d="M569.988.108c-.343.343-.137.8.343.8.32 0 .457-.137.412-.411-.092-.434-.503-.64-.755-.389zM15.428 7.172c-1.852.526-2.607 2.789-1.326 3.978.365.343.617.777.571.983-.023.183.137.846.412 1.463.434 1.051 1.005 5.075 1.005 7.315v.937l-2.834-.16c-4.32-.251-7.773-.617-8.276-.891-.411-.229-.434-.572-.365-5.921.068-6.172-.069-7.132-1.143-7.384-.732-.183-1.303 0-2.492.869-.937.686-.983.777-.983 1.966 0 .686.229 1.966.503 2.812.709 2.263.891 5.829.343 7.795-.229.846-.366 1.783-.32 2.08.137 1.097.983 1.235 8.504 1.509 3.863.16 7.086.343 7.2.457.343.343.55 2.515.55 6.08l.022 3.658-6.31-.045c-5.188-.023-6.423.023-6.994.32-.846.434-.846.708-.023 1.326.617.457.983.48 6.926.434 3.452-.046 6.835-.137 7.544-.206l1.235-.137-.046-4.846c-.046-5.167.16-6.493 1.051-6.767.252-.091.686-.091.96 0 .275.092.71 0 1.006-.183.8-.526 2.584-.708 4.275-.434 1.669.274 2.698.869 2.812 1.623.069.549-.206.709-1.989 1.12-1.486.343-1.829.96-1.989 3.406-.114 1.532-.068 1.76.48 2.378.48.548.709.64 1.235.503.731-.16 1.349-1.303 1.349-2.47 0-.365.091-.822.205-.982.572-.915 2.286 1.006 2.24 2.492-.068 1.554 1.44 1.783 2.195.342.617-1.188.434-3.726-.411-5.692-.389-.937-.618-1.943-.618-2.651 0-1.875-.548-2.195-3.886-2.47-7.132-.594-7.795-.754-8.572-2.171-.297-.572-.252-4.183.091-5.898.206-.983.503-1.052 6.378-1.052 2.629 0 5.326-.114 6.012-.251 2.172-.48 3.384-2.149 2.583-3.612-.365-.709-1.966-1.326-4.137-1.623-2.263-.32-13.876-.32-14.974 0zm526.122 4.71c-.32.777-.411 2.102-.48 8.64l-.091 7.75h12.047v9.052l-5.463.138c-6.013.16-7.864.457-7.864 1.257 0 .274.274.594.663.777.914.457 5.395.755 10.721.777h4.412l-.16-2.949c-.069-1.6-.206-4.389-.297-6.149l-.16-3.223 4.503.16c2.492.091 4.572.206 4.64.274.07.069-.09.526-.365 1.029-.274.503-.549 1.417-.64 2.034-.16 1.35.206 3.52.686 4 .526.527 1.143-.16 1.783-1.92.8-2.171 1.28-1.92 1.531.824.183 1.851 1.28 2.629 2.24 1.577.39-.434.458-.892.458-3.063 0-2.652.023-2.56-1.212-4.275-.205-.274-.434-1.097-.525-1.829l-.138-1.303-3.017-.16a179.876 179.876 0 0 0-6.104-.137l-3.04-.023v-2.606c0-1.44.16-3.52.366-4.618.457-2.309.365-4.206-.229-5.097-.32-.503-.594-.64-1.349-.64-.663 0-1.006.137-1.166.434-.114.228-.274 2.789-.365 5.692-.069 2.903-.229 5.6-.343 6.012-.183.663-.297.732-1.623.846-1.486.137-7.247-.114-7.43-.297-.068-.069-.023-1.098.115-2.263.137-1.166.342-3.772.502-5.807.275-3.932.138-5.098-.731-5.578-.892-.457-1.44-.274-1.875.663zm-439.94 2.925c-.8.48-1.51 1.372-1.51 1.852 0 .16.207.366.481.457.251.069.411.252.343.366-.183.274-1.075.091-2.538-.503-1.211-.503-2.377-.343-3.314.434-1.372 1.143-.64 2.812 1.531 3.59 1.92.685 2.103 1.257 1.943 5.829-.068 2.057-.251 4.32-.434 5.029-.274 1.189-.411 1.372-1.211 1.76-1.03.48-1.852 1.646-1.852 2.629 0 1.463 2.354 1.829 3.543.549 1.166-1.258 3.292-1.098 5.007.365 1.211 1.052 2.011 1.19 2.743.458 1.074-1.075.205-2.538-2.538-4.184l-1.6-.96.16-3.132c.183-3.772.572-6.743.96-7.52.16-.32.777-.8 1.349-1.098.617-.297 1.486-1.029 2.103-1.806l1.052-1.303-1.052-.937c-1.577-1.395-3.109-2.332-3.795-2.332-.343 0-.96.206-1.371.457zm-56.83.32c-.206.298-.366.755-.366 1.03 0 .64-.457 1.028-2.126 1.92-1.623.868-2.629 1.92-4.115 4.32-.64 1.051-1.554 2.286-2.034 2.743-1.12 1.074-1.098 1.646.091 4 2.469 4.893 5.99 7.544 10.516 7.933 1.966.16 1.783.069 3.566 2.172 1.006 1.188 2.857 2.149 4.526 2.354 1.417.16 2.263-.205 2.72-1.143.252-.548.252-.754-.045-1.348-.457-.892-.777-.983-2.766-1.006-1.76 0-2.538-.343-2.926-1.35-.32-.845.228-1.76 1.691-2.834.64-.48 1.692-1.417 2.31-2.103 2.674-2.994 3.04-5.28 1.348-8.664-.572-1.12-1.417-2.377-2.012-2.972-1.074-1.028-4.435-2.834-6.63-3.543-.868-.274-1.44-.663-1.874-1.234-.731-.938-1.348-1.029-1.874-.275zm5.715 5.693c1.989 1.897 2.834 5.989 1.966 9.258-.229.823-.595 1.577-.778 1.669-.205.068-1.028-.16-1.828-.526-1.966-.869-2.858-.846-3.84.114-.984 1.006-.732 1.577.754 1.692 1.097.091 1.28.366.48.777-.663.366-1.92.343-2.63-.023-.822-.411-2.354-1.92-2.765-2.674-.846-1.624-.64-5.098.48-7.521 1.166-2.538 3.109-3.75 5.852-3.635 1.326.046 1.577.16 2.309.869zm29.215-4.527c-.915 1.486-.572 2.606 1.12 3.704 1.417.891 1.692 1.737 1.714 5.029.023 4.663-1.44 7.84-3.977 8.527-1.692.48-5.555.457-6.47-.046-1.188-.663-1.623-1.852-1.463-4.115.183-2.675 1.372-5.052 4-7.955 1.967-2.172 2.218-2.766 1.601-3.612-.32-.434-.617-.457-2.972-.412-2.583.069-2.606.069-3.52-.663-.503-.388-1.143-.731-1.417-.731-.823 0-2.492.96-3.292 1.874l-.778.87.686.525c.8.64 2.88 1.486 4.206 1.692.526.091 1.006.251 1.075.365.183.297-.274 1.075-1.943 3.2-2.492 3.224-2.995 4.138-2.995 5.51.023 3.932 3.635 6.104 10.287 6.15 2.332.022 3.818.32 4.435.914.686.64 1.829.663 2.629.023.846-.663 3.155-.64 4.755.045 1.097.48 1.211.48 1.76.115 1.509-.983 1.234-2.104-.823-3.155-.983-.48-1.234-.754-1.417-1.486-.343-1.257-.618-7.59-.412-9.258.16-1.212.32-1.51 1.6-2.926 1.486-1.646 1.944-2.79 1.44-3.704-.48-.868-1.348-.891-3.017-.045-1.714.891-2.012.868-3.658-.275-.571-.388-1.394-.754-1.851-.823-.732-.114-.869-.045-1.303.663zm122.667-.137c-.823.686-.938 1.326-.389 2.263.549.96.411 1.783-.457 3.04-1.143 1.692-1.212 2.058-.526 2.812.32.343.709.64.823.64.137 0 .709-.365 1.28-.822 1.806-1.464 3.383-2.31 4.16-2.24 1.12.09 1.875 1.828 1.99 4.663.182 4.023-.595 6.698-2.447 8.595-1.257 1.28-1.6 2.149-1.028 2.698.571.571 1.737.411 2.972-.39 1.554-1.028 2.674-1.005 4.823.115 1.097.595 1.829.823 2.149.732 1.166-.389.823-1.6-1.006-3.52-1.166-1.212-1.303-1.487-1.486-2.767-.114-.777-.206-3.177-.206-5.326 0-3.498.046-3.955.48-4.526.275-.343.732-.8 1.03-1.006.525-.343.593-.297 1.92 1.097 1.737 1.829 3.52 3.178 4.251 3.178.686 0 1.806-1.258 1.806-2.035 0-.709-.503-1.12-1.897-1.577-1.486-.458-1.6-1.143-.434-2.355 1.028-1.097 1.143-1.417.708-2.263-.64-1.28-2.012-1.44-3.292-.412-.503.39-1.303.778-1.783.87-.48.068-1.714.48-2.766.89-1.829.71-1.897.71-2.629.32-.411-.228-1.257-.502-1.897-.617-.686-.114-1.76-.617-2.743-1.28-2.195-1.463-2.492-1.531-3.406-.777zm-76.49.092c-.251.114-.686.434-.937.708-.412.457-.709.526-3.11.526-1.462 0-3.154.114-3.748.251-2.95.686-6.287 3.11-6.607 4.847-.297 1.577 1.052 3.154 3.91 4.526 1.462.686 2.902 1.029 6.766 1.623 2.263.343 2.903.869 2.903 2.378 0 1.234-.64 2.263-1.76 2.857-1.097.572-3.406.503-4.64-.137-1.19-.595-2.447-1.966-2.607-2.858-.297-1.463-.526-1.874-1.189-2.194-.617-.297-.8-.275-1.325 0-.778.434-.892 1.349-.366 2.72.571 1.463.183 2.24-1.372 2.766-2.217.732-2.743 2.195-1.12 3.018 1.006.525 2.058.297 3.27-.732 1.12-.96 1.668-1.029 3.177-.343 2.423 1.12 4.8 1.029 8.23-.297 1.577-.594 2.24-1.029 3.291-2.103.732-.732 1.532-1.76 1.783-2.286l.457-.96-1.417-1.257c-2.172-1.944-4.069-2.835-7.064-3.292-3.497-.549-4.229-.778-4.777-1.486-1.12-1.417-.252-3.315 1.783-4.024 1.486-.502 1.966-.274 4.229 1.99 2.217 2.217 3.132 2.72 4.709 2.605 1.692-.091 1.646-.708-.16-2.651l-1.463-1.555.823-.549c.937-.64 1.577-1.623 1.577-2.377 0-.297-.32-.846-.709-1.234-.708-.71-1.554-.87-2.537-.48zm168.021.411c-1.646.892-2.995 1.28-5.532 1.532-3.178.343-5.83-.023-7.247-.96-.594-.39-1.28-.732-1.531-.732-.595 0-1.166.937-1.166 1.875 0 1.028-.297 1.6-1.6 2.994-.572.617-1.03 1.235-1.03 1.349 0 .114.367.549.847.96 1.303 1.166 2.011 1.029 3.794-.663 2.378-2.263 2.835-2.309 3.658-.389.549 1.303.732 6.241.343 8.664-.389 2.4-.8 3.384-1.989 4.572-1.074 1.12-1.257 2.104-.526 2.652.618.457.709.412 1.715-.48 1.234-1.097 1.783-1.371 2.949-1.371s1.714.274 2.949 1.371c.983.869 1.509.937 1.943.274.366-.594-.16-2.4-1.075-3.634-2.148-2.972-2.011-2.606-2.103-5.852-.091-3.2.229-5.601.938-7.224.411-.937.502-1.006 1.12-.869.983.229 1.691.983 2.103 2.24.64 1.943 2.629 3.498 3.726 2.904.914-.48.526-2.012-1.006-4.047l-.96-1.257 1.097-1.189c.618-.64 1.12-1.326 1.12-1.531 0-.206-.297-.709-.662-1.098l-.663-.731-1.212.64zm70.203.32c-1.074 1.052-.983 2.012.343 3.246.686.686 1.417 1.097 2.149 1.303.8.183 1.12.389 1.12.686 0 .251-.663 1.463-1.463 2.697-1.92 2.95-3.338 5.647-3.338 6.333 0 .983 1.212 3.017 2.446 4.092 1.99 1.714 3.864 2.537 6.675 2.903 1.44.183 2.812.526 3.384.823 1.394.708 2.309.663 2.812-.206.457-.823 1.44-1.463 2.217-1.463.297 0 1.052.32 1.692.732 1.668 1.074 2.537 1.28 3.109.685.891-.891.388-1.988-1.578-3.337-.914-.64-1.074-.892-1.349-2.103-.411-1.898-.411-7.978 0-9.624.252-.96.663-1.646 1.51-2.584.96-1.074 1.165-1.463 1.165-2.217 0-.983-.549-1.714-1.28-1.714-.229 0-.892.457-1.486 1.005-1.417 1.303-2.195 1.326-3.429.115-1.074-1.052-1.669-1.098-2.675-.252-1.28 1.075-1.005 1.738 1.646 3.932.663.549.755.8 1.006 2.766.526 4.024-.183 7.773-1.76 9.418-1.234 1.28-2.012 1.6-4.046 1.6-2.378.024-3.36-.594-4.55-2.765-.708-1.326-.822-1.76-.822-3.224 0-2.057.663-3.634 2.469-5.783 2.171-2.63 2.651-3.75 1.828-4.412-.205-.183-1.234-.48-2.309-.686-1.828-.366-1.988-.457-2.423-1.234-.868-1.624-1.92-1.875-3.063-.732zm-208.46.023c-3.658.48-3.726.503-4.55 1.669-.57.8-1.074 1.188-2.057 1.577-.708.297-1.44.754-1.623 1.029-.48.708-.663 5.075-.297 6.812.686 3.246 3.36 6.63 6.492 8.184 1.44.709 1.715.754 3.84.731 1.76-.022 2.698-.16 4.093-.617 2.949-1.006 2.857-1.006 4.572.046 1.783 1.097 3.429 1.303 4.137.526.8-.892.48-1.418-1.577-2.446-.777-.389-1.372-.915-1.715-1.486-.48-.869-.502-.892-.068-2.08.343-.938.366-1.304.16-1.692-.297-.549-.366-.572-2.812-.503-1.646.046-1.783 0-2.469-.686-.823-.823-.914-1.554-.274-2.514.526-.8.434-1.35-.32-2.08-.869-.824-1.577-.55-2.309.845-.32.663-.869 1.326-1.189 1.486-.594.32-3.726.411-4.412.16-1.211-.457 1.052-4.298 2.926-4.915 1.075-.343 4.024-.137 5.281.389.48.205 1.532 1.074 2.355 1.943 1.646 1.783 2.468 2.057 3.246 1.029.686-.87.571-1.555-.389-2.31-.457-.365-.823-.777-.823-.89 0-.115.206-.687.503-1.281.343-.732.457-1.257.343-1.852-.206-1.12-.64-1.417-1.875-1.211-1.325.228-3.726.251-5.829.068-.914-.091-2.423-.045-3.36.069zm3.429 12.573c1.097.983 2.514 1.737 3.726 1.943.48.091.96.251 1.006.366.068.091-.137.526-.48.914-.846.983-2.95 1.76-4.96 1.806-1.418.023-1.715-.046-2.63-.709-1.257-.868-2.606-2.788-2.606-3.703 0-1.394.092-1.44 2.675-1.44 2.354 0 2.377 0 3.269.823zm32.232-12.55c-.48.114-2.583.251-4.686.274-3.749.046-3.886.069-5.28.777-1.578.8-3.818 2.72-4.344 3.75-.526 1.028-.434 2.285.229 2.948 1.28 1.28 4.457 2.515 7.703 3.018 3.384.526 5.121 1.92 4.847 3.909-.297 2.332-2.79 3.863-5.258 3.315-1.806-.412-2.606-1.372-2.949-3.452-.32-2.012-2.469-3.155-3.52-1.852-.55.686-.55 1.166.045 1.92.275.343.48.983.48 1.51 0 .73-.205 1.12-1.188 2.216-1.28 1.395-1.463 1.898-.823 2.126.777.298 1.737.138 2.629-.48l.937-.64 1.623.435c2.286.594 7.246.434 8.847-.298 2.286-1.028 4.526-3.794 4.526-5.623 0-.709-.183-1.052-.983-1.852-1.349-1.348-4.39-2.812-6.927-3.292-3.52-.708-4.892-1.554-4.846-3.04.046-1.646 2.263-2.469 4.732-1.76 1.326.388 1.989.937 4.046 3.36 1.052 1.258 1.966 1.44 2.812.595.389-.389.48-.663.343-1.258-.091-.411-.229-1.92-.32-3.337-.183-2.652-.366-3.132-1.372-3.36-.251-.07-.845-.024-1.303.09zm275.99.663c-1.052 1.051-1.212 1.989-.527 3.132.435.777 1.486 1.44 2.218 1.44 2.24 0 3.177 2.834 2.652 8.07-.39 4.023-.64 4.731-2.378 6.332-1.577 1.463-1.874 2.423-1.006 3.223.64.571 1.349.48 2.24-.297 1.144-.983 1.715-1.235 2.812-1.235.663 0 1.166.183 1.646.595.96.8 1.738 1.074 2.4.822.87-.32.686-1.234-.502-2.583-.892-.983-1.098-1.44-1.35-2.789-.41-2.171-.205-5.235.435-6.698.64-1.44 3.223-4.183 4.206-4.434 2.492-.64 4.87 1.303 5.418 4.412.457 2.72-.137 4.914-2.423 8.686-.663 1.098-1.166 2.172-1.12 2.4.137.71 1.143 1.03 2.743.87 1.372-.138 1.486-.092 2.309.617.457.411 1.006.754 1.212.731.503 0 1.623-1.349 1.623-1.943 0-.64-1.006-1.509-2.15-1.852-.525-.16-1.028-.388-1.096-.503-.069-.114.297-1.234.845-2.446 2.08-4.709 2.218-5.143 2.24-6.332.023-.937-.16-1.577-.754-2.766-1.806-3.543-3.269-4.778-6.172-5.235-1.28-.206-1.6-.16-2.812.343-1.874.8-2.537.777-2.629-.069-.137-1.143-1.028-1.371-3.589-.891-2.56.503-3.337.343-3.657-.732-.48-1.623-.617-1.806-1.258-1.806-.411 0-.96.32-1.577.938zm-224.623.16c-1.692 1.074-3.406 1.166-4.527.228-.868-.731-1.965-.983-2.651-.617-.663.343-.892 1.646-.435 2.698.275.685.572.937 1.578 1.28 2.057.754 2.286 1.143 2.377 4.252.114 3.063-.274 6.08-.937 7.612-.252.572-.96 1.577-1.532 2.195-.594.64-1.074 1.371-1.074 1.646 0 1.12 2.286 1.348 3.246.32 1.029-1.098 4.32-1.166 5.12-.092.892 1.166 3.155 1.097 3.155-.091 0-.892-.594-1.67-1.897-2.492-.617-.411-1.303-1.052-1.532-1.417-.64-1.098-.937-3.818-.868-7.498l.091-3.384 1.852-1.737c2.057-1.897 2.263-2.446 1.234-3.269-.891-.686-1.691-.617-3.2.366zm25.329-.252c-.572.435-1.303.435-3.864.069-1.851-.274-2.08-.252-3.497.274-3.635 1.303-6.698 3.406-7.064 4.87-.64 2.537 1.989 4.137 7.452 4.526 5.052.388 5.875.914 5.875 3.84 0 1.875-.48 2.88-1.714 3.566-.8.457-1.212.526-2.24.412-2.172-.206-4.275-1.555-5.167-3.292-.663-1.303-1.669-2.195-2.377-2.103l-.617.068.068 2.332.069 2.309-.846.96c-.96 1.052-1.075 1.692-.412 2.286.732.663 1.44.48 2.584-.686 1.211-1.211 1.623-1.303 2.903-.548 1.257.754 5.189.914 7.406.32 1.898-.503 3.772-2.172 5.03-4.412l.823-1.51-1.075-1.416c-2.377-3.086-4.137-3.978-8.527-4.32-1.531-.115-2.971-.275-3.177-.367-.869-.32-.229-2.766.96-3.703.571-.457.892-.526 2.24-.412 2.012.138 3.224.755 5.167 2.698 1.851 1.829 2.56 2.012 3.566.823.343-.412.617-.937.617-1.143 0-.229-.594-.754-1.326-1.212-.731-.434-1.303-.937-1.303-1.12 0-.183.206-.686.457-1.12.549-.891.618-1.646.206-2.057-.389-.412-1.646-.366-2.217.068zm53.15-.205c-.207.068-.778.411-1.258.754l-.915.594-4.16-.16c-2.378-.091-4.412-.068-4.732.069-.32.114-1.303.777-2.195 1.486-.868.708-1.828 1.463-2.103 1.646-.457.365-2.08 4.274-2.652 6.515-.274 1.006-.251 1.143.732 3.154 1.349 2.812 2.88 4.481 5.143 5.601 1.624.8 1.92.869 3.887.846 2.217 0 4.206-.412 5.966-1.234 1.463-.64 1.715-.618 2.903.48.846.777 1.235.96 1.966.983 1.875 0 2.606-1.83 1.235-2.995-.412-.343-.823-.617-.915-.617-.114 0-.48-.275-.823-.595-.571-.525-.64-.754-.64-2.217 0-.892-.091-1.783-.205-1.943-.138-.206-1.006-.389-2.446-.503-1.898-.16-2.31-.274-2.675-.732-.549-.685-.549-.891.069-2.034.434-.8.457-1.006.182-1.509-.983-1.829-3.086-1.257-3.086.823 0 1.372-.365 1.577-2.949 1.463-2.903-.091-3.291-.366-2.834-1.92.48-1.578 2.217-3.178 3.817-3.52 1.738-.366 3.498-.344 4.504.068.457.206 1.737 1.234 2.857 2.286 1.692 1.623 2.126 1.92 2.812 1.92 1.28 0 1.875-.548 1.875-1.76 0-1.12-.526-1.829-1.35-1.829-.274 0-.685-.16-.936-.343-.435-.32-.412-.365.434-1.303 1.006-1.12 1.166-2.08.48-2.88-.457-.526-1.395-.8-1.989-.594zm-5.693 13.235c2.012.983 3.36 2.218 3.246 2.95-.046.297-.389.754-.754 1.028-.595.434-1.075.526-3.84.594-3.133.069-3.178.069-3.796-.548-.777-.777-2.125-3.292-2.125-3.955 0-.777.8-.983 3.383-.914 2.034.068 2.469.16 3.886.845zm81.313-12.39c-1.852 1.235-2.789 1.326-3.84.343-.39-.388-.96-.686-1.326-.686-1.006 0-2.172 1.35-1.875 2.172.069.16.755.732 1.509 1.235 2.08 1.417 2.217 1.897 2.354 8.115l.092 5.12-1.943 2.012c-1.075 1.12-1.943 2.195-1.943 2.378 0 .525.64.914 1.6.937.571.023.937-.092 1.006-.297.205-.617 1.28-1.44 2.103-1.6.64-.115 1.189.022 2.583.731 1.875.914 2.789 1.074 3.269.503.389-.457.137-1.12-.869-2.332-.457-.548-1.051-1.394-1.28-1.874-1.166-2.263-1.577-7.818-.823-11.11.32-1.349.572-1.898 1.212-2.538.457-.457.914-1.006 1.051-1.257.572-1.052-.022-2.857-.937-2.857-.251 0-1.12.457-1.943 1.005zm16.528-.297c-.503.503-.686.937-.686 1.532 0 .96.229 1.188 2.355 2.309 2.286 1.211 2.286 1.623-.069 5.257-1.257 1.92-1.92 4.024-1.692 5.281.229 1.257 1.098 2.652 2.47 3.932 1.782 1.669 2.88 2.126 5.554 2.355 1.258.091 3.178.274 4.252.365 1.783.16 2.058.115 3.315-.457 1.897-.869 2.583-.846 3.383.183.777 1.029 2.149 1.555 2.675 1.029.297-.297.297-.457-.046-1.28-.206-.503-.846-1.418-1.44-2.012-1.395-1.44-1.486-1.692-1.783-4.39-.595-5.188-.183-9.486.937-10.24 1.44-.983 1.92-1.646 1.92-2.607 0-1.165-.183-1.737-.571-1.737-.16 0-.846.389-1.555.823-1.577 1.029-2.629 1.234-3.749.777-.457-.205-.846-.457-.846-.594 0-.114-.32-.343-.685-.503-1.35-.549-2.812.754-2.172 1.943.137.274.914 1.189 1.669 2.035.777.823 1.486 1.806 1.6 2.171.251.892.251 6.424 0 7.567-.114.526-.617 1.372-1.303 2.103-2.355 2.652-5.166 3.43-6.88 1.92-.915-.8-1.19-1.463-1.601-3.84-.206-1.28-.183-1.875.091-3.132.48-2.034 1.92-5.395 2.812-6.515.754-.937.96-2.377.412-2.743-.16-.115-1.19-.252-2.264-.32-1.828-.137-2.011-.206-2.949-1.029-1.234-1.12-2.148-1.189-3.154-.183zm118.117-.068c-.205.091-.571.342-.845.571-.275.252-1.19.64-2.035.869-2.24.617-10.058.617-13.03 0-2.698-.549-3.2-.343-2.926 1.12.457 2.56.091 3.635-1.555 4.48-1.577.8-1.783 1.944-.48 2.652.869.457 3.59-1.12 4.664-2.697.617-.915 2.446-1.99 3.772-2.218.754-.137.937-.068 1.394.526.503.64.526.8.434 5.692-.114 5.83-.068 5.692-2.491 8.321-.846.915-1.532 1.875-1.532 2.103 0 .229.297.71.663 1.052 1.074 1.029 1.966.846 2.697-.572.732-1.417 1.738-1.76 3.132-1.051.389.206.96.8 1.303 1.326.64 1.028 1.258 1.211 1.852.526.914-1.03.686-2.79-.457-3.544-1.463-.96-2.47-5.212-2.012-8.687.32-2.606.869-4.206 1.669-5.097 1.074-1.143 1.806-1.006 3.246.617a88.657 88.657 0 0 0 2.332 2.514l1.097 1.166h1.577c1.326 0 1.646-.068 1.852-.457.457-.846-.137-1.577-1.943-2.377-1.166-.503-1.737-.915-1.943-1.349-.366-.8-.137-1.189 1.28-2.172 1.394-.983 1.532-1.92.434-2.834-.708-.618-1.371-.755-2.149-.48zm-74.889.594c-1.12.503-1.486.503-5.28.069-1.235-.138-1.464-.07-3.75 1.074-2.903 1.44-4.252 2.766-6.812 6.675l-1.669 2.56 1.12 2.058c2.058 3.817 3.75 5.555 6.676 6.88 1.874.824 4.914 1.03 7.726.48 2.195-.41 2.446-.365 4.275.8 1.532.96 3.338 1.03 4.16.184.618-.686.664-1.51.092-1.806-.229-.137-.937-.297-1.577-.389-1.99-.297-2.904-1.714-2.332-3.612.48-1.6.434-1.851-.434-2.446-.595-.388-1.166-.571-2.012-.571-1.783 0-3.086-.823-3.43-2.195-.113-.503-.045-.686.344-.914.891-.457.411-2.286-.663-2.56-.915-.23-1.783.434-2.24 1.76-.366 1.051-.48 1.166-1.303 1.326-1.12.205-4.138-.023-4.32-.32-.138-.23 1.76-3.52 2.65-4.641.458-.572.778-.686 2.561-.914 1.12-.138 2.332-.183 2.698-.092.411.114 1.577 1.097 2.903 2.446 1.326 1.349 2.423 2.263 2.697 2.263.549 0 1.532-.937 1.532-1.463 0-.206-.549-.983-1.212-1.737-.663-.755-1.188-1.577-1.188-1.806 0-.229.251-.663.594-.983.709-.686.754-1.509.114-2.172-.594-.571-.594-.571-1.92.046zm-5.44 12.23c.274.16.754.48 1.028.732.274.251 1.074.754 1.783 1.12.709.365 1.463.937 1.669 1.303.32.594.32.731 0 1.326-.549.96-1.852 1.325-4.435 1.211-3.223-.16-5.03-1.303-5.67-3.589-.342-1.371-.136-2.08.687-2.194 1.44-.206 4.434-.16 4.937.091zm52.28-11.91c-1.349 1.074-2.674 1.143-4.252.229-.937-.55-1.12-.595-1.714-.298-.366.183-.8.618-.983.96-.412.87-.046 1.578 1.646 3.2 1.76 1.693 1.966 2.287 2.103 6.15.16 5.052-.32 7.064-2.378 9.647-1.028 1.28-1.166 1.966-.525 2.47.8.593 1.485.388 2.537-.778 1.234-1.349 1.783-1.578 2.926-1.257.617.16 1.029.502 1.372 1.097.457.754.594.823 1.326.708 1.12-.182 1.508-.548 1.508-1.44 0-.64-.297-1.051-1.806-2.446l-1.783-1.691v-5.03c.023-7.086.069-7.292 1.738-8.846 1.508-1.372 1.646-1.898.868-2.88-.663-.847-1.326-.8-2.583.205zm-153.642.137c-2.629.366-4.229 1.097-6.012 2.79-2.332 2.194-3.84 5.348-3.84 7.977 0 3.75 4.686 7.841 9.738 8.504 2.217.297 2.286.343 2.606 1.852.16.846 1.92 2.789 3.246 3.635 1.714 1.074 3.429.777 4.183-.732.343-.663.275-1.029-.32-1.875-.571-.754-1.257-1.028-2.354-.868-1.6.206-3.27-1.052-2.72-2.058.388-.708 1.302-1.371 2.468-1.806 1.898-.708 3.704-3.177 5.007-6.88l.548-1.555-1.166-2.24c-.64-1.235-1.554-2.766-2.057-3.406-2.172-2.72-5.372-3.886-9.327-3.338zm2.972 2.24c1.874.8 4.458 6.013 4.458 8.984 0 1.212-.503 2.47-1.372 3.43-1.692 1.874-2.926 2.057-3.932.57-.686-1.005-1.874-1.622-2.743-1.416-1.189.297-2.08 2.24-1.189 2.583.183.091.366.251.366.388 0 .16-.32.115-.754-.114-.938-.503-2.492-2.903-2.858-4.458-.823-3.383.754-7.406 3.52-9.12 1.852-1.144 3.178-1.395 4.504-.847z"/>
</svg>
